%TF.GenerationSoftware,KiCad,Pcbnew,7.0.7*%
%TF.CreationDate,2023-10-17T17:05:39-05:00*%
%TF.ProjectId,IGVC-CBV1,49475643-2d43-4425-9631-2e6b69636164,rev?*%
%TF.SameCoordinates,Original*%
%TF.FileFunction,Legend,Top*%
%TF.FilePolarity,Positive*%
%FSLAX46Y46*%
G04 Gerber Fmt 4.6, Leading zero omitted, Abs format (unit mm)*
G04 Created by KiCad (PCBNEW 7.0.7) date 2023-10-17 17:05:39*
%MOMM*%
%LPD*%
G01*
G04 APERTURE LIST*
%ADD10C,0.250000*%
%ADD11C,0.254000*%
%ADD12C,0.150000*%
%ADD13C,0.050000*%
%ADD14C,0.200000*%
%ADD15C,0.100000*%
%ADD16C,0.152400*%
%ADD17C,0.127000*%
%ADD18C,0.120000*%
G04 APERTURE END LIST*
D10*
X113223809Y-62973428D02*
X113223809Y-61473428D01*
X114223808Y-61544857D02*
X114128570Y-61473428D01*
X114128570Y-61473428D02*
X113985713Y-61473428D01*
X113985713Y-61473428D02*
X113842856Y-61544857D01*
X113842856Y-61544857D02*
X113747618Y-61687714D01*
X113747618Y-61687714D02*
X113699999Y-61830571D01*
X113699999Y-61830571D02*
X113652380Y-62116285D01*
X113652380Y-62116285D02*
X113652380Y-62330571D01*
X113652380Y-62330571D02*
X113699999Y-62616285D01*
X113699999Y-62616285D02*
X113747618Y-62759142D01*
X113747618Y-62759142D02*
X113842856Y-62902000D01*
X113842856Y-62902000D02*
X113985713Y-62973428D01*
X113985713Y-62973428D02*
X114080951Y-62973428D01*
X114080951Y-62973428D02*
X114223808Y-62902000D01*
X114223808Y-62902000D02*
X114271427Y-62830571D01*
X114271427Y-62830571D02*
X114271427Y-62330571D01*
X114271427Y-62330571D02*
X114080951Y-62330571D01*
X114557142Y-61473428D02*
X114890475Y-62973428D01*
X114890475Y-62973428D02*
X115223808Y-61473428D01*
X116128570Y-62830571D02*
X116080951Y-62902000D01*
X116080951Y-62902000D02*
X115938094Y-62973428D01*
X115938094Y-62973428D02*
X115842856Y-62973428D01*
X115842856Y-62973428D02*
X115699999Y-62902000D01*
X115699999Y-62902000D02*
X115604761Y-62759142D01*
X115604761Y-62759142D02*
X115557142Y-62616285D01*
X115557142Y-62616285D02*
X115509523Y-62330571D01*
X115509523Y-62330571D02*
X115509523Y-62116285D01*
X115509523Y-62116285D02*
X115557142Y-61830571D01*
X115557142Y-61830571D02*
X115604761Y-61687714D01*
X115604761Y-61687714D02*
X115699999Y-61544857D01*
X115699999Y-61544857D02*
X115842856Y-61473428D01*
X115842856Y-61473428D02*
X115938094Y-61473428D01*
X115938094Y-61473428D02*
X116080951Y-61544857D01*
X116080951Y-61544857D02*
X116128570Y-61616285D01*
X117319047Y-62973428D02*
X117319047Y-61473428D01*
X117319047Y-61473428D02*
X117699999Y-61473428D01*
X117699999Y-61473428D02*
X117795237Y-61544857D01*
X117795237Y-61544857D02*
X117842856Y-61616285D01*
X117842856Y-61616285D02*
X117890475Y-61759142D01*
X117890475Y-61759142D02*
X117890475Y-61973428D01*
X117890475Y-61973428D02*
X117842856Y-62116285D01*
X117842856Y-62116285D02*
X117795237Y-62187714D01*
X117795237Y-62187714D02*
X117699999Y-62259142D01*
X117699999Y-62259142D02*
X117319047Y-62259142D01*
X118319047Y-62973428D02*
X118319047Y-61973428D01*
X118319047Y-62259142D02*
X118366666Y-62116285D01*
X118366666Y-62116285D02*
X118414285Y-62044857D01*
X118414285Y-62044857D02*
X118509523Y-61973428D01*
X118509523Y-61973428D02*
X118604761Y-61973428D01*
X119080952Y-62973428D02*
X118985714Y-62902000D01*
X118985714Y-62902000D02*
X118938095Y-62830571D01*
X118938095Y-62830571D02*
X118890476Y-62687714D01*
X118890476Y-62687714D02*
X118890476Y-62259142D01*
X118890476Y-62259142D02*
X118938095Y-62116285D01*
X118938095Y-62116285D02*
X118985714Y-62044857D01*
X118985714Y-62044857D02*
X119080952Y-61973428D01*
X119080952Y-61973428D02*
X119223809Y-61973428D01*
X119223809Y-61973428D02*
X119319047Y-62044857D01*
X119319047Y-62044857D02*
X119366666Y-62116285D01*
X119366666Y-62116285D02*
X119414285Y-62259142D01*
X119414285Y-62259142D02*
X119414285Y-62687714D01*
X119414285Y-62687714D02*
X119366666Y-62830571D01*
X119366666Y-62830571D02*
X119319047Y-62902000D01*
X119319047Y-62902000D02*
X119223809Y-62973428D01*
X119223809Y-62973428D02*
X119080952Y-62973428D01*
X119842857Y-61973428D02*
X119842857Y-63259142D01*
X119842857Y-63259142D02*
X119795238Y-63402000D01*
X119795238Y-63402000D02*
X119700000Y-63473428D01*
X119700000Y-63473428D02*
X119652381Y-63473428D01*
X119842857Y-61473428D02*
X119795238Y-61544857D01*
X119795238Y-61544857D02*
X119842857Y-61616285D01*
X119842857Y-61616285D02*
X119890476Y-61544857D01*
X119890476Y-61544857D02*
X119842857Y-61473428D01*
X119842857Y-61473428D02*
X119842857Y-61616285D01*
X120699999Y-62902000D02*
X120604761Y-62973428D01*
X120604761Y-62973428D02*
X120414285Y-62973428D01*
X120414285Y-62973428D02*
X120319047Y-62902000D01*
X120319047Y-62902000D02*
X120271428Y-62759142D01*
X120271428Y-62759142D02*
X120271428Y-62187714D01*
X120271428Y-62187714D02*
X120319047Y-62044857D01*
X120319047Y-62044857D02*
X120414285Y-61973428D01*
X120414285Y-61973428D02*
X120604761Y-61973428D01*
X120604761Y-61973428D02*
X120699999Y-62044857D01*
X120699999Y-62044857D02*
X120747618Y-62187714D01*
X120747618Y-62187714D02*
X120747618Y-62330571D01*
X120747618Y-62330571D02*
X120271428Y-62473428D01*
X121604761Y-62902000D02*
X121509523Y-62973428D01*
X121509523Y-62973428D02*
X121319047Y-62973428D01*
X121319047Y-62973428D02*
X121223809Y-62902000D01*
X121223809Y-62902000D02*
X121176190Y-62830571D01*
X121176190Y-62830571D02*
X121128571Y-62687714D01*
X121128571Y-62687714D02*
X121128571Y-62259142D01*
X121128571Y-62259142D02*
X121176190Y-62116285D01*
X121176190Y-62116285D02*
X121223809Y-62044857D01*
X121223809Y-62044857D02*
X121319047Y-61973428D01*
X121319047Y-61973428D02*
X121509523Y-61973428D01*
X121509523Y-61973428D02*
X121604761Y-62044857D01*
X121890476Y-61973428D02*
X122271428Y-61973428D01*
X122033333Y-61473428D02*
X122033333Y-62759142D01*
X122033333Y-62759142D02*
X122080952Y-62902000D01*
X122080952Y-62902000D02*
X122176190Y-62973428D01*
X122176190Y-62973428D02*
X122271428Y-62973428D01*
X123890476Y-61544857D02*
X123795238Y-61473428D01*
X123795238Y-61473428D02*
X123652381Y-61473428D01*
X123652381Y-61473428D02*
X123509524Y-61544857D01*
X123509524Y-61544857D02*
X123414286Y-61687714D01*
X123414286Y-61687714D02*
X123366667Y-61830571D01*
X123366667Y-61830571D02*
X123319048Y-62116285D01*
X123319048Y-62116285D02*
X123319048Y-62330571D01*
X123319048Y-62330571D02*
X123366667Y-62616285D01*
X123366667Y-62616285D02*
X123414286Y-62759142D01*
X123414286Y-62759142D02*
X123509524Y-62902000D01*
X123509524Y-62902000D02*
X123652381Y-62973428D01*
X123652381Y-62973428D02*
X123747619Y-62973428D01*
X123747619Y-62973428D02*
X123890476Y-62902000D01*
X123890476Y-62902000D02*
X123938095Y-62830571D01*
X123938095Y-62830571D02*
X123938095Y-62330571D01*
X123938095Y-62330571D02*
X123747619Y-62330571D01*
X124747619Y-62902000D02*
X124652381Y-62973428D01*
X124652381Y-62973428D02*
X124461905Y-62973428D01*
X124461905Y-62973428D02*
X124366667Y-62902000D01*
X124366667Y-62902000D02*
X124319048Y-62759142D01*
X124319048Y-62759142D02*
X124319048Y-62187714D01*
X124319048Y-62187714D02*
X124366667Y-62044857D01*
X124366667Y-62044857D02*
X124461905Y-61973428D01*
X124461905Y-61973428D02*
X124652381Y-61973428D01*
X124652381Y-61973428D02*
X124747619Y-62044857D01*
X124747619Y-62044857D02*
X124795238Y-62187714D01*
X124795238Y-62187714D02*
X124795238Y-62330571D01*
X124795238Y-62330571D02*
X124319048Y-62473428D01*
X125223810Y-61973428D02*
X125223810Y-62973428D01*
X125223810Y-62116285D02*
X125271429Y-62044857D01*
X125271429Y-62044857D02*
X125366667Y-61973428D01*
X125366667Y-61973428D02*
X125509524Y-61973428D01*
X125509524Y-61973428D02*
X125604762Y-62044857D01*
X125604762Y-62044857D02*
X125652381Y-62187714D01*
X125652381Y-62187714D02*
X125652381Y-62973428D01*
X126509524Y-62902000D02*
X126414286Y-62973428D01*
X126414286Y-62973428D02*
X126223810Y-62973428D01*
X126223810Y-62973428D02*
X126128572Y-62902000D01*
X126128572Y-62902000D02*
X126080953Y-62759142D01*
X126080953Y-62759142D02*
X126080953Y-62187714D01*
X126080953Y-62187714D02*
X126128572Y-62044857D01*
X126128572Y-62044857D02*
X126223810Y-61973428D01*
X126223810Y-61973428D02*
X126414286Y-61973428D01*
X126414286Y-61973428D02*
X126509524Y-62044857D01*
X126509524Y-62044857D02*
X126557143Y-62187714D01*
X126557143Y-62187714D02*
X126557143Y-62330571D01*
X126557143Y-62330571D02*
X126080953Y-62473428D01*
X126938096Y-62902000D02*
X127033334Y-62973428D01*
X127033334Y-62973428D02*
X127223810Y-62973428D01*
X127223810Y-62973428D02*
X127319048Y-62902000D01*
X127319048Y-62902000D02*
X127366667Y-62759142D01*
X127366667Y-62759142D02*
X127366667Y-62687714D01*
X127366667Y-62687714D02*
X127319048Y-62544857D01*
X127319048Y-62544857D02*
X127223810Y-62473428D01*
X127223810Y-62473428D02*
X127080953Y-62473428D01*
X127080953Y-62473428D02*
X126985715Y-62402000D01*
X126985715Y-62402000D02*
X126938096Y-62259142D01*
X126938096Y-62259142D02*
X126938096Y-62187714D01*
X126938096Y-62187714D02*
X126985715Y-62044857D01*
X126985715Y-62044857D02*
X127080953Y-61973428D01*
X127080953Y-61973428D02*
X127223810Y-61973428D01*
X127223810Y-61973428D02*
X127319048Y-62044857D01*
X127795239Y-62973428D02*
X127795239Y-61973428D01*
X127795239Y-61473428D02*
X127747620Y-61544857D01*
X127747620Y-61544857D02*
X127795239Y-61616285D01*
X127795239Y-61616285D02*
X127842858Y-61544857D01*
X127842858Y-61544857D02*
X127795239Y-61473428D01*
X127795239Y-61473428D02*
X127795239Y-61616285D01*
X128223810Y-62902000D02*
X128319048Y-62973428D01*
X128319048Y-62973428D02*
X128509524Y-62973428D01*
X128509524Y-62973428D02*
X128604762Y-62902000D01*
X128604762Y-62902000D02*
X128652381Y-62759142D01*
X128652381Y-62759142D02*
X128652381Y-62687714D01*
X128652381Y-62687714D02*
X128604762Y-62544857D01*
X128604762Y-62544857D02*
X128509524Y-62473428D01*
X128509524Y-62473428D02*
X128366667Y-62473428D01*
X128366667Y-62473428D02*
X128271429Y-62402000D01*
X128271429Y-62402000D02*
X128223810Y-62259142D01*
X128223810Y-62259142D02*
X128223810Y-62187714D01*
X128223810Y-62187714D02*
X128271429Y-62044857D01*
X128271429Y-62044857D02*
X128366667Y-61973428D01*
X128366667Y-61973428D02*
X128509524Y-61973428D01*
X128509524Y-61973428D02*
X128604762Y-62044857D01*
X129700001Y-61473428D02*
X130033334Y-62973428D01*
X130033334Y-62973428D02*
X130366667Y-61473428D01*
X131223810Y-62973428D02*
X130652382Y-62973428D01*
X130938096Y-62973428D02*
X130938096Y-61473428D01*
X130938096Y-61473428D02*
X130842858Y-61687714D01*
X130842858Y-61687714D02*
X130747620Y-61830571D01*
X130747620Y-61830571D02*
X130652382Y-61902000D01*
X120485714Y-64031285D02*
X120533333Y-63959857D01*
X120533333Y-63959857D02*
X120628571Y-63888428D01*
X120628571Y-63888428D02*
X120866666Y-63888428D01*
X120866666Y-63888428D02*
X120961904Y-63959857D01*
X120961904Y-63959857D02*
X121009523Y-64031285D01*
X121009523Y-64031285D02*
X121057142Y-64174142D01*
X121057142Y-64174142D02*
X121057142Y-64317000D01*
X121057142Y-64317000D02*
X121009523Y-64531285D01*
X121009523Y-64531285D02*
X120438095Y-65388428D01*
X120438095Y-65388428D02*
X121057142Y-65388428D01*
X121676190Y-63888428D02*
X121771428Y-63888428D01*
X121771428Y-63888428D02*
X121866666Y-63959857D01*
X121866666Y-63959857D02*
X121914285Y-64031285D01*
X121914285Y-64031285D02*
X121961904Y-64174142D01*
X121961904Y-64174142D02*
X122009523Y-64459857D01*
X122009523Y-64459857D02*
X122009523Y-64817000D01*
X122009523Y-64817000D02*
X121961904Y-65102714D01*
X121961904Y-65102714D02*
X121914285Y-65245571D01*
X121914285Y-65245571D02*
X121866666Y-65317000D01*
X121866666Y-65317000D02*
X121771428Y-65388428D01*
X121771428Y-65388428D02*
X121676190Y-65388428D01*
X121676190Y-65388428D02*
X121580952Y-65317000D01*
X121580952Y-65317000D02*
X121533333Y-65245571D01*
X121533333Y-65245571D02*
X121485714Y-65102714D01*
X121485714Y-65102714D02*
X121438095Y-64817000D01*
X121438095Y-64817000D02*
X121438095Y-64459857D01*
X121438095Y-64459857D02*
X121485714Y-64174142D01*
X121485714Y-64174142D02*
X121533333Y-64031285D01*
X121533333Y-64031285D02*
X121580952Y-63959857D01*
X121580952Y-63959857D02*
X121676190Y-63888428D01*
X122390476Y-64031285D02*
X122438095Y-63959857D01*
X122438095Y-63959857D02*
X122533333Y-63888428D01*
X122533333Y-63888428D02*
X122771428Y-63888428D01*
X122771428Y-63888428D02*
X122866666Y-63959857D01*
X122866666Y-63959857D02*
X122914285Y-64031285D01*
X122914285Y-64031285D02*
X122961904Y-64174142D01*
X122961904Y-64174142D02*
X122961904Y-64317000D01*
X122961904Y-64317000D02*
X122914285Y-64531285D01*
X122914285Y-64531285D02*
X122342857Y-65388428D01*
X122342857Y-65388428D02*
X122961904Y-65388428D01*
X123295238Y-63888428D02*
X123914285Y-63888428D01*
X123914285Y-63888428D02*
X123580952Y-64459857D01*
X123580952Y-64459857D02*
X123723809Y-64459857D01*
X123723809Y-64459857D02*
X123819047Y-64531285D01*
X123819047Y-64531285D02*
X123866666Y-64602714D01*
X123866666Y-64602714D02*
X123914285Y-64745571D01*
X123914285Y-64745571D02*
X123914285Y-65102714D01*
X123914285Y-65102714D02*
X123866666Y-65245571D01*
X123866666Y-65245571D02*
X123819047Y-65317000D01*
X123819047Y-65317000D02*
X123723809Y-65388428D01*
X123723809Y-65388428D02*
X123438095Y-65388428D01*
X123438095Y-65388428D02*
X123342857Y-65317000D01*
X123342857Y-65317000D02*
X123295238Y-65245571D01*
X105390474Y-68374857D02*
X105342855Y-68303428D01*
X105342855Y-68303428D02*
X105247617Y-68089142D01*
X105247617Y-68089142D02*
X105199998Y-67946285D01*
X105199998Y-67946285D02*
X105152379Y-67732000D01*
X105152379Y-67732000D02*
X105104760Y-67374857D01*
X105104760Y-67374857D02*
X105104760Y-67089142D01*
X105104760Y-67089142D02*
X105152379Y-66732000D01*
X105152379Y-66732000D02*
X105199998Y-66517714D01*
X105199998Y-66517714D02*
X105247617Y-66374857D01*
X105247617Y-66374857D02*
X105342855Y-66160571D01*
X105342855Y-66160571D02*
X105390474Y-66089142D01*
X105771427Y-67017714D02*
X106104760Y-67017714D01*
X106247617Y-67803428D02*
X105771427Y-67803428D01*
X105771427Y-67803428D02*
X105771427Y-66303428D01*
X105771427Y-66303428D02*
X106247617Y-66303428D01*
X106580951Y-66803428D02*
X106819046Y-67803428D01*
X106819046Y-67803428D02*
X107057141Y-66803428D01*
X107866665Y-67803428D02*
X107866665Y-67017714D01*
X107866665Y-67017714D02*
X107819046Y-66874857D01*
X107819046Y-66874857D02*
X107723808Y-66803428D01*
X107723808Y-66803428D02*
X107533332Y-66803428D01*
X107533332Y-66803428D02*
X107438094Y-66874857D01*
X107866665Y-67732000D02*
X107771427Y-67803428D01*
X107771427Y-67803428D02*
X107533332Y-67803428D01*
X107533332Y-67803428D02*
X107438094Y-67732000D01*
X107438094Y-67732000D02*
X107390475Y-67589142D01*
X107390475Y-67589142D02*
X107390475Y-67446285D01*
X107390475Y-67446285D02*
X107438094Y-67303428D01*
X107438094Y-67303428D02*
X107533332Y-67232000D01*
X107533332Y-67232000D02*
X107771427Y-67232000D01*
X107771427Y-67232000D02*
X107866665Y-67160571D01*
X108342856Y-66803428D02*
X108342856Y-67803428D01*
X108342856Y-66946285D02*
X108390475Y-66874857D01*
X108390475Y-66874857D02*
X108485713Y-66803428D01*
X108485713Y-66803428D02*
X108628570Y-66803428D01*
X108628570Y-66803428D02*
X108723808Y-66874857D01*
X108723808Y-66874857D02*
X108771427Y-67017714D01*
X108771427Y-67017714D02*
X108771427Y-67803428D01*
X110009523Y-67017714D02*
X110342856Y-67017714D01*
X110485713Y-67803428D02*
X110009523Y-67803428D01*
X110009523Y-67803428D02*
X110009523Y-66303428D01*
X110009523Y-66303428D02*
X110485713Y-66303428D01*
X110961904Y-67732000D02*
X110961904Y-67803428D01*
X110961904Y-67803428D02*
X110914285Y-67946285D01*
X110914285Y-67946285D02*
X110866666Y-68017714D01*
X112723808Y-67660571D02*
X112676189Y-67732000D01*
X112676189Y-67732000D02*
X112533332Y-67803428D01*
X112533332Y-67803428D02*
X112438094Y-67803428D01*
X112438094Y-67803428D02*
X112295237Y-67732000D01*
X112295237Y-67732000D02*
X112199999Y-67589142D01*
X112199999Y-67589142D02*
X112152380Y-67446285D01*
X112152380Y-67446285D02*
X112104761Y-67160571D01*
X112104761Y-67160571D02*
X112104761Y-66946285D01*
X112104761Y-66946285D02*
X112152380Y-66660571D01*
X112152380Y-66660571D02*
X112199999Y-66517714D01*
X112199999Y-66517714D02*
X112295237Y-66374857D01*
X112295237Y-66374857D02*
X112438094Y-66303428D01*
X112438094Y-66303428D02*
X112533332Y-66303428D01*
X112533332Y-66303428D02*
X112676189Y-66374857D01*
X112676189Y-66374857D02*
X112723808Y-66446285D01*
X113295237Y-67803428D02*
X113199999Y-67732000D01*
X113199999Y-67732000D02*
X113152380Y-67660571D01*
X113152380Y-67660571D02*
X113104761Y-67517714D01*
X113104761Y-67517714D02*
X113104761Y-67089142D01*
X113104761Y-67089142D02*
X113152380Y-66946285D01*
X113152380Y-66946285D02*
X113199999Y-66874857D01*
X113199999Y-66874857D02*
X113295237Y-66803428D01*
X113295237Y-66803428D02*
X113438094Y-66803428D01*
X113438094Y-66803428D02*
X113533332Y-66874857D01*
X113533332Y-66874857D02*
X113580951Y-66946285D01*
X113580951Y-66946285D02*
X113628570Y-67089142D01*
X113628570Y-67089142D02*
X113628570Y-67517714D01*
X113628570Y-67517714D02*
X113580951Y-67660571D01*
X113580951Y-67660571D02*
X113533332Y-67732000D01*
X113533332Y-67732000D02*
X113438094Y-67803428D01*
X113438094Y-67803428D02*
X113295237Y-67803428D01*
X114199999Y-67803428D02*
X114104761Y-67732000D01*
X114104761Y-67732000D02*
X114057142Y-67589142D01*
X114057142Y-67589142D02*
X114057142Y-66303428D01*
X114580952Y-67803428D02*
X114580952Y-66303428D01*
X114580952Y-66874857D02*
X114676190Y-66803428D01*
X114676190Y-66803428D02*
X114866666Y-66803428D01*
X114866666Y-66803428D02*
X114961904Y-66874857D01*
X114961904Y-66874857D02*
X115009523Y-66946285D01*
X115009523Y-66946285D02*
X115057142Y-67089142D01*
X115057142Y-67089142D02*
X115057142Y-67517714D01*
X115057142Y-67517714D02*
X115009523Y-67660571D01*
X115009523Y-67660571D02*
X114961904Y-67732000D01*
X114961904Y-67732000D02*
X114866666Y-67803428D01*
X114866666Y-67803428D02*
X114676190Y-67803428D01*
X114676190Y-67803428D02*
X114580952Y-67732000D01*
X115390476Y-66803428D02*
X115628571Y-67803428D01*
X115866666Y-66803428D02*
X115628571Y-67803428D01*
X115628571Y-67803428D02*
X115533333Y-68160571D01*
X115533333Y-68160571D02*
X115485714Y-68232000D01*
X115485714Y-68232000D02*
X115390476Y-68303428D01*
X117009524Y-67803428D02*
X117009524Y-66303428D01*
X117009524Y-66303428D02*
X117342857Y-67374857D01*
X117342857Y-67374857D02*
X117676190Y-66303428D01*
X117676190Y-66303428D02*
X117676190Y-67803428D01*
X118152381Y-67660571D02*
X118200000Y-67732000D01*
X118200000Y-67732000D02*
X118152381Y-67803428D01*
X118152381Y-67803428D02*
X118104762Y-67732000D01*
X118104762Y-67732000D02*
X118152381Y-67660571D01*
X118152381Y-67660571D02*
X118152381Y-67803428D01*
X118676190Y-67732000D02*
X118676190Y-67803428D01*
X118676190Y-67803428D02*
X118628571Y-67946285D01*
X118628571Y-67946285D02*
X118580952Y-68017714D01*
X119866666Y-67803428D02*
X119866666Y-66303428D01*
X120438094Y-67803428D02*
X120009523Y-66946285D01*
X120438094Y-66303428D02*
X119866666Y-67160571D01*
X121247618Y-67732000D02*
X121152380Y-67803428D01*
X121152380Y-67803428D02*
X120961904Y-67803428D01*
X120961904Y-67803428D02*
X120866666Y-67732000D01*
X120866666Y-67732000D02*
X120819047Y-67589142D01*
X120819047Y-67589142D02*
X120819047Y-67017714D01*
X120819047Y-67017714D02*
X120866666Y-66874857D01*
X120866666Y-66874857D02*
X120961904Y-66803428D01*
X120961904Y-66803428D02*
X121152380Y-66803428D01*
X121152380Y-66803428D02*
X121247618Y-66874857D01*
X121247618Y-66874857D02*
X121295237Y-67017714D01*
X121295237Y-67017714D02*
X121295237Y-67160571D01*
X121295237Y-67160571D02*
X120819047Y-67303428D01*
X121723809Y-67803428D02*
X121723809Y-66803428D01*
X121723809Y-67089142D02*
X121771428Y-66946285D01*
X121771428Y-66946285D02*
X121819047Y-66874857D01*
X121819047Y-66874857D02*
X121914285Y-66803428D01*
X121914285Y-66803428D02*
X122009523Y-66803428D01*
X122247619Y-66803428D02*
X122438095Y-67803428D01*
X122438095Y-67803428D02*
X122628571Y-67089142D01*
X122628571Y-67089142D02*
X122819047Y-67803428D01*
X122819047Y-67803428D02*
X123009523Y-66803428D01*
X123390476Y-67803428D02*
X123390476Y-66803428D01*
X123390476Y-66303428D02*
X123342857Y-66374857D01*
X123342857Y-66374857D02*
X123390476Y-66446285D01*
X123390476Y-66446285D02*
X123438095Y-66374857D01*
X123438095Y-66374857D02*
X123390476Y-66303428D01*
X123390476Y-66303428D02*
X123390476Y-66446285D01*
X123866666Y-66803428D02*
X123866666Y-67803428D01*
X123866666Y-66946285D02*
X123914285Y-66874857D01*
X123914285Y-66874857D02*
X124009523Y-66803428D01*
X124009523Y-66803428D02*
X124152380Y-66803428D01*
X124152380Y-66803428D02*
X124247618Y-66874857D01*
X124247618Y-66874857D02*
X124295237Y-67017714D01*
X124295237Y-67017714D02*
X124295237Y-67803428D01*
X125438095Y-66303428D02*
X126104761Y-66303428D01*
X126104761Y-66303428D02*
X125438095Y-67803428D01*
X125438095Y-67803428D02*
X126104761Y-67803428D01*
X126485714Y-67660571D02*
X126533333Y-67732000D01*
X126533333Y-67732000D02*
X126485714Y-67803428D01*
X126485714Y-67803428D02*
X126438095Y-67732000D01*
X126438095Y-67732000D02*
X126485714Y-67660571D01*
X126485714Y-67660571D02*
X126485714Y-67803428D01*
X127009523Y-67732000D02*
X127009523Y-67803428D01*
X127009523Y-67803428D02*
X126961904Y-67946285D01*
X126961904Y-67946285D02*
X126914285Y-68017714D01*
X128057142Y-66303428D02*
X128628570Y-66303428D01*
X128342856Y-67803428D02*
X128342856Y-66303428D01*
X129390475Y-67803428D02*
X129390475Y-67017714D01*
X129390475Y-67017714D02*
X129342856Y-66874857D01*
X129342856Y-66874857D02*
X129247618Y-66803428D01*
X129247618Y-66803428D02*
X129057142Y-66803428D01*
X129057142Y-66803428D02*
X128961904Y-66874857D01*
X129390475Y-67732000D02*
X129295237Y-67803428D01*
X129295237Y-67803428D02*
X129057142Y-67803428D01*
X129057142Y-67803428D02*
X128961904Y-67732000D01*
X128961904Y-67732000D02*
X128914285Y-67589142D01*
X128914285Y-67589142D02*
X128914285Y-67446285D01*
X128914285Y-67446285D02*
X128961904Y-67303428D01*
X128961904Y-67303428D02*
X129057142Y-67232000D01*
X129057142Y-67232000D02*
X129295237Y-67232000D01*
X129295237Y-67232000D02*
X129390475Y-67160571D01*
X129866666Y-67803428D02*
X129866666Y-66803428D01*
X129866666Y-67089142D02*
X129914285Y-66946285D01*
X129914285Y-66946285D02*
X129961904Y-66874857D01*
X129961904Y-66874857D02*
X130057142Y-66803428D01*
X130057142Y-66803428D02*
X130152380Y-66803428D01*
X130914285Y-66803428D02*
X130914285Y-67803428D01*
X130485714Y-66803428D02*
X130485714Y-67589142D01*
X130485714Y-67589142D02*
X130533333Y-67732000D01*
X130533333Y-67732000D02*
X130628571Y-67803428D01*
X130628571Y-67803428D02*
X130771428Y-67803428D01*
X130771428Y-67803428D02*
X130866666Y-67732000D01*
X130866666Y-67732000D02*
X130914285Y-67660571D01*
X131390476Y-66803428D02*
X131390476Y-67803428D01*
X131390476Y-66946285D02*
X131438095Y-66874857D01*
X131438095Y-66874857D02*
X131533333Y-66803428D01*
X131533333Y-66803428D02*
X131676190Y-66803428D01*
X131676190Y-66803428D02*
X131771428Y-66874857D01*
X131771428Y-66874857D02*
X131819047Y-67017714D01*
X131819047Y-67017714D02*
X131819047Y-67803428D01*
X133057143Y-67803428D02*
X133057143Y-66303428D01*
X133057143Y-66303428D02*
X133295238Y-66303428D01*
X133295238Y-66303428D02*
X133438095Y-66374857D01*
X133438095Y-66374857D02*
X133533333Y-66517714D01*
X133533333Y-66517714D02*
X133580952Y-66660571D01*
X133580952Y-66660571D02*
X133628571Y-66946285D01*
X133628571Y-66946285D02*
X133628571Y-67160571D01*
X133628571Y-67160571D02*
X133580952Y-67446285D01*
X133580952Y-67446285D02*
X133533333Y-67589142D01*
X133533333Y-67589142D02*
X133438095Y-67732000D01*
X133438095Y-67732000D02*
X133295238Y-67803428D01*
X133295238Y-67803428D02*
X133057143Y-67803428D01*
X134485714Y-67803428D02*
X134485714Y-67017714D01*
X134485714Y-67017714D02*
X134438095Y-66874857D01*
X134438095Y-66874857D02*
X134342857Y-66803428D01*
X134342857Y-66803428D02*
X134152381Y-66803428D01*
X134152381Y-66803428D02*
X134057143Y-66874857D01*
X134485714Y-67732000D02*
X134390476Y-67803428D01*
X134390476Y-67803428D02*
X134152381Y-67803428D01*
X134152381Y-67803428D02*
X134057143Y-67732000D01*
X134057143Y-67732000D02*
X134009524Y-67589142D01*
X134009524Y-67589142D02*
X134009524Y-67446285D01*
X134009524Y-67446285D02*
X134057143Y-67303428D01*
X134057143Y-67303428D02*
X134152381Y-67232000D01*
X134152381Y-67232000D02*
X134390476Y-67232000D01*
X134390476Y-67232000D02*
X134485714Y-67160571D01*
X135390476Y-66803428D02*
X135390476Y-68017714D01*
X135390476Y-68017714D02*
X135342857Y-68160571D01*
X135342857Y-68160571D02*
X135295238Y-68232000D01*
X135295238Y-68232000D02*
X135200000Y-68303428D01*
X135200000Y-68303428D02*
X135057143Y-68303428D01*
X135057143Y-68303428D02*
X134961905Y-68232000D01*
X135390476Y-67732000D02*
X135295238Y-67803428D01*
X135295238Y-67803428D02*
X135104762Y-67803428D01*
X135104762Y-67803428D02*
X135009524Y-67732000D01*
X135009524Y-67732000D02*
X134961905Y-67660571D01*
X134961905Y-67660571D02*
X134914286Y-67517714D01*
X134914286Y-67517714D02*
X134914286Y-67089142D01*
X134914286Y-67089142D02*
X134961905Y-66946285D01*
X134961905Y-66946285D02*
X135009524Y-66874857D01*
X135009524Y-66874857D02*
X135104762Y-66803428D01*
X135104762Y-66803428D02*
X135295238Y-66803428D01*
X135295238Y-66803428D02*
X135390476Y-66874857D01*
X136295238Y-66803428D02*
X136295238Y-68017714D01*
X136295238Y-68017714D02*
X136247619Y-68160571D01*
X136247619Y-68160571D02*
X136200000Y-68232000D01*
X136200000Y-68232000D02*
X136104762Y-68303428D01*
X136104762Y-68303428D02*
X135961905Y-68303428D01*
X135961905Y-68303428D02*
X135866667Y-68232000D01*
X136295238Y-67732000D02*
X136200000Y-67803428D01*
X136200000Y-67803428D02*
X136009524Y-67803428D01*
X136009524Y-67803428D02*
X135914286Y-67732000D01*
X135914286Y-67732000D02*
X135866667Y-67660571D01*
X135866667Y-67660571D02*
X135819048Y-67517714D01*
X135819048Y-67517714D02*
X135819048Y-67089142D01*
X135819048Y-67089142D02*
X135866667Y-66946285D01*
X135866667Y-66946285D02*
X135914286Y-66874857D01*
X135914286Y-66874857D02*
X136009524Y-66803428D01*
X136009524Y-66803428D02*
X136200000Y-66803428D01*
X136200000Y-66803428D02*
X136295238Y-66874857D01*
X136914286Y-67803428D02*
X136819048Y-67732000D01*
X136819048Y-67732000D02*
X136771429Y-67660571D01*
X136771429Y-67660571D02*
X136723810Y-67517714D01*
X136723810Y-67517714D02*
X136723810Y-67089142D01*
X136723810Y-67089142D02*
X136771429Y-66946285D01*
X136771429Y-66946285D02*
X136819048Y-66874857D01*
X136819048Y-66874857D02*
X136914286Y-66803428D01*
X136914286Y-66803428D02*
X137057143Y-66803428D01*
X137057143Y-66803428D02*
X137152381Y-66874857D01*
X137152381Y-66874857D02*
X137200000Y-66946285D01*
X137200000Y-66946285D02*
X137247619Y-67089142D01*
X137247619Y-67089142D02*
X137247619Y-67517714D01*
X137247619Y-67517714D02*
X137200000Y-67660571D01*
X137200000Y-67660571D02*
X137152381Y-67732000D01*
X137152381Y-67732000D02*
X137057143Y-67803428D01*
X137057143Y-67803428D02*
X136914286Y-67803428D01*
X137819048Y-67803428D02*
X137723810Y-67732000D01*
X137723810Y-67732000D02*
X137676191Y-67589142D01*
X137676191Y-67589142D02*
X137676191Y-66303428D01*
X138628572Y-66803428D02*
X138628572Y-67803428D01*
X138200001Y-66803428D02*
X138200001Y-67589142D01*
X138200001Y-67589142D02*
X138247620Y-67732000D01*
X138247620Y-67732000D02*
X138342858Y-67803428D01*
X138342858Y-67803428D02*
X138485715Y-67803428D01*
X138485715Y-67803428D02*
X138580953Y-67732000D01*
X138580953Y-67732000D02*
X138628572Y-67660571D01*
X139009525Y-68374857D02*
X139057144Y-68303428D01*
X139057144Y-68303428D02*
X139152382Y-68089142D01*
X139152382Y-68089142D02*
X139200001Y-67946285D01*
X139200001Y-67946285D02*
X139247620Y-67732000D01*
X139247620Y-67732000D02*
X139295239Y-67374857D01*
X139295239Y-67374857D02*
X139295239Y-67089142D01*
X139295239Y-67089142D02*
X139247620Y-66732000D01*
X139247620Y-66732000D02*
X139200001Y-66517714D01*
X139200001Y-66517714D02*
X139152382Y-66374857D01*
X139152382Y-66374857D02*
X139057144Y-66160571D01*
X139057144Y-66160571D02*
X139009525Y-66089142D01*
D11*
X134069667Y-117257080D02*
X133646333Y-117257080D01*
X133646333Y-117922318D02*
X133646333Y-116652318D01*
X133646333Y-116652318D02*
X134251095Y-116652318D01*
X135158238Y-117257080D02*
X135339666Y-117317556D01*
X135339666Y-117317556D02*
X135400143Y-117378032D01*
X135400143Y-117378032D02*
X135460619Y-117498984D01*
X135460619Y-117498984D02*
X135460619Y-117680413D01*
X135460619Y-117680413D02*
X135400143Y-117801365D01*
X135400143Y-117801365D02*
X135339666Y-117861842D01*
X135339666Y-117861842D02*
X135218714Y-117922318D01*
X135218714Y-117922318D02*
X134734904Y-117922318D01*
X134734904Y-117922318D02*
X134734904Y-116652318D01*
X134734904Y-116652318D02*
X135158238Y-116652318D01*
X135158238Y-116652318D02*
X135279190Y-116712794D01*
X135279190Y-116712794D02*
X135339666Y-116773270D01*
X135339666Y-116773270D02*
X135400143Y-116894222D01*
X135400143Y-116894222D02*
X135400143Y-117015175D01*
X135400143Y-117015175D02*
X135339666Y-117136127D01*
X135339666Y-117136127D02*
X135279190Y-117196603D01*
X135279190Y-117196603D02*
X135158238Y-117257080D01*
X135158238Y-117257080D02*
X134734904Y-117257080D01*
X136670143Y-117922318D02*
X135944428Y-117922318D01*
X136307285Y-117922318D02*
X136307285Y-116652318D01*
X136307285Y-116652318D02*
X136186333Y-116833746D01*
X136186333Y-116833746D02*
X136065381Y-116954699D01*
X136065381Y-116954699D02*
X135944428Y-117015175D01*
X143455571Y-112721365D02*
X143395095Y-112781842D01*
X143395095Y-112781842D02*
X143213666Y-112842318D01*
X143213666Y-112842318D02*
X143092714Y-112842318D01*
X143092714Y-112842318D02*
X142911285Y-112781842D01*
X142911285Y-112781842D02*
X142790333Y-112660889D01*
X142790333Y-112660889D02*
X142729856Y-112539937D01*
X142729856Y-112539937D02*
X142669380Y-112298032D01*
X142669380Y-112298032D02*
X142669380Y-112116603D01*
X142669380Y-112116603D02*
X142729856Y-111874699D01*
X142729856Y-111874699D02*
X142790333Y-111753746D01*
X142790333Y-111753746D02*
X142911285Y-111632794D01*
X142911285Y-111632794D02*
X143092714Y-111572318D01*
X143092714Y-111572318D02*
X143213666Y-111572318D01*
X143213666Y-111572318D02*
X143395095Y-111632794D01*
X143395095Y-111632794D02*
X143455571Y-111693270D01*
X144665095Y-112842318D02*
X143939380Y-112842318D01*
X144302237Y-112842318D02*
X144302237Y-111572318D01*
X144302237Y-111572318D02*
X144181285Y-111753746D01*
X144181285Y-111753746D02*
X144060333Y-111874699D01*
X144060333Y-111874699D02*
X143939380Y-111935175D01*
X145814142Y-111572318D02*
X145209380Y-111572318D01*
X145209380Y-111572318D02*
X145148904Y-112177080D01*
X145148904Y-112177080D02*
X145209380Y-112116603D01*
X145209380Y-112116603D02*
X145330333Y-112056127D01*
X145330333Y-112056127D02*
X145632714Y-112056127D01*
X145632714Y-112056127D02*
X145753666Y-112116603D01*
X145753666Y-112116603D02*
X145814142Y-112177080D01*
X145814142Y-112177080D02*
X145874619Y-112298032D01*
X145874619Y-112298032D02*
X145874619Y-112600413D01*
X145874619Y-112600413D02*
X145814142Y-112721365D01*
X145814142Y-112721365D02*
X145753666Y-112781842D01*
X145753666Y-112781842D02*
X145632714Y-112842318D01*
X145632714Y-112842318D02*
X145330333Y-112842318D01*
X145330333Y-112842318D02*
X145209380Y-112781842D01*
X145209380Y-112781842D02*
X145148904Y-112721365D01*
X163352237Y-71694318D02*
X163352237Y-70424318D01*
X164682714Y-71573365D02*
X164622238Y-71633842D01*
X164622238Y-71633842D02*
X164440809Y-71694318D01*
X164440809Y-71694318D02*
X164319857Y-71694318D01*
X164319857Y-71694318D02*
X164138428Y-71633842D01*
X164138428Y-71633842D02*
X164017476Y-71512889D01*
X164017476Y-71512889D02*
X163956999Y-71391937D01*
X163956999Y-71391937D02*
X163896523Y-71150032D01*
X163896523Y-71150032D02*
X163896523Y-70968603D01*
X163896523Y-70968603D02*
X163956999Y-70726699D01*
X163956999Y-70726699D02*
X164017476Y-70605746D01*
X164017476Y-70605746D02*
X164138428Y-70484794D01*
X164138428Y-70484794D02*
X164319857Y-70424318D01*
X164319857Y-70424318D02*
X164440809Y-70424318D01*
X164440809Y-70424318D02*
X164622238Y-70484794D01*
X164622238Y-70484794D02*
X164682714Y-70545270D01*
X165166523Y-70545270D02*
X165226999Y-70484794D01*
X165226999Y-70484794D02*
X165347952Y-70424318D01*
X165347952Y-70424318D02*
X165650333Y-70424318D01*
X165650333Y-70424318D02*
X165771285Y-70484794D01*
X165771285Y-70484794D02*
X165831761Y-70545270D01*
X165831761Y-70545270D02*
X165892238Y-70666222D01*
X165892238Y-70666222D02*
X165892238Y-70787175D01*
X165892238Y-70787175D02*
X165831761Y-70968603D01*
X165831761Y-70968603D02*
X165106047Y-71694318D01*
X165106047Y-71694318D02*
X165892238Y-71694318D01*
X130755571Y-93925365D02*
X130695095Y-93985842D01*
X130695095Y-93985842D02*
X130513666Y-94046318D01*
X130513666Y-94046318D02*
X130392714Y-94046318D01*
X130392714Y-94046318D02*
X130211285Y-93985842D01*
X130211285Y-93985842D02*
X130090333Y-93864889D01*
X130090333Y-93864889D02*
X130029856Y-93743937D01*
X130029856Y-93743937D02*
X129969380Y-93502032D01*
X129969380Y-93502032D02*
X129969380Y-93320603D01*
X129969380Y-93320603D02*
X130029856Y-93078699D01*
X130029856Y-93078699D02*
X130090333Y-92957746D01*
X130090333Y-92957746D02*
X130211285Y-92836794D01*
X130211285Y-92836794D02*
X130392714Y-92776318D01*
X130392714Y-92776318D02*
X130513666Y-92776318D01*
X130513666Y-92776318D02*
X130695095Y-92836794D01*
X130695095Y-92836794D02*
X130755571Y-92897270D01*
X131965095Y-94046318D02*
X131239380Y-94046318D01*
X131602237Y-94046318D02*
X131602237Y-92776318D01*
X131602237Y-92776318D02*
X131481285Y-92957746D01*
X131481285Y-92957746D02*
X131360333Y-93078699D01*
X131360333Y-93078699D02*
X131239380Y-93139175D01*
X132388428Y-92776318D02*
X133174619Y-92776318D01*
X133174619Y-92776318D02*
X132751285Y-93260127D01*
X132751285Y-93260127D02*
X132932714Y-93260127D01*
X132932714Y-93260127D02*
X133053666Y-93320603D01*
X133053666Y-93320603D02*
X133114142Y-93381080D01*
X133114142Y-93381080D02*
X133174619Y-93502032D01*
X133174619Y-93502032D02*
X133174619Y-93804413D01*
X133174619Y-93804413D02*
X133114142Y-93925365D01*
X133114142Y-93925365D02*
X133053666Y-93985842D01*
X133053666Y-93985842D02*
X132932714Y-94046318D01*
X132932714Y-94046318D02*
X132569857Y-94046318D01*
X132569857Y-94046318D02*
X132448904Y-93985842D01*
X132448904Y-93985842D02*
X132388428Y-93925365D01*
X136440333Y-76653365D02*
X136379857Y-76713842D01*
X136379857Y-76713842D02*
X136198428Y-76774318D01*
X136198428Y-76774318D02*
X136077476Y-76774318D01*
X136077476Y-76774318D02*
X135896047Y-76713842D01*
X135896047Y-76713842D02*
X135775095Y-76592889D01*
X135775095Y-76592889D02*
X135714618Y-76471937D01*
X135714618Y-76471937D02*
X135654142Y-76230032D01*
X135654142Y-76230032D02*
X135654142Y-76048603D01*
X135654142Y-76048603D02*
X135714618Y-75806699D01*
X135714618Y-75806699D02*
X135775095Y-75685746D01*
X135775095Y-75685746D02*
X135896047Y-75564794D01*
X135896047Y-75564794D02*
X136077476Y-75504318D01*
X136077476Y-75504318D02*
X136198428Y-75504318D01*
X136198428Y-75504318D02*
X136379857Y-75564794D01*
X136379857Y-75564794D02*
X136440333Y-75625270D01*
X137528904Y-75927651D02*
X137528904Y-76774318D01*
X137226523Y-75443842D02*
X136924142Y-76350984D01*
X136924142Y-76350984D02*
X137710333Y-76350984D01*
X127919238Y-107157556D02*
X127919238Y-107762318D01*
X127495905Y-106492318D02*
X127919238Y-107157556D01*
X127919238Y-107157556D02*
X128342572Y-106492318D01*
X129431143Y-107762318D02*
X128705428Y-107762318D01*
X129068285Y-107762318D02*
X129068285Y-106492318D01*
X129068285Y-106492318D02*
X128947333Y-106673746D01*
X128947333Y-106673746D02*
X128826381Y-106794699D01*
X128826381Y-106794699D02*
X128705428Y-106855175D01*
X127812333Y-75819365D02*
X127751857Y-75879842D01*
X127751857Y-75879842D02*
X127570428Y-75940318D01*
X127570428Y-75940318D02*
X127449476Y-75940318D01*
X127449476Y-75940318D02*
X127268047Y-75879842D01*
X127268047Y-75879842D02*
X127147095Y-75758889D01*
X127147095Y-75758889D02*
X127086618Y-75637937D01*
X127086618Y-75637937D02*
X127026142Y-75396032D01*
X127026142Y-75396032D02*
X127026142Y-75214603D01*
X127026142Y-75214603D02*
X127086618Y-74972699D01*
X127086618Y-74972699D02*
X127147095Y-74851746D01*
X127147095Y-74851746D02*
X127268047Y-74730794D01*
X127268047Y-74730794D02*
X127449476Y-74670318D01*
X127449476Y-74670318D02*
X127570428Y-74670318D01*
X127570428Y-74670318D02*
X127751857Y-74730794D01*
X127751857Y-74730794D02*
X127812333Y-74791270D01*
X129021857Y-75940318D02*
X128296142Y-75940318D01*
X128658999Y-75940318D02*
X128658999Y-74670318D01*
X128658999Y-74670318D02*
X128538047Y-74851746D01*
X128538047Y-74851746D02*
X128417095Y-74972699D01*
X128417095Y-74972699D02*
X128296142Y-75033175D01*
X136228667Y-97856318D02*
X136228667Y-98763461D01*
X136228667Y-98763461D02*
X136168190Y-98944889D01*
X136168190Y-98944889D02*
X136047238Y-99065842D01*
X136047238Y-99065842D02*
X135865809Y-99126318D01*
X135865809Y-99126318D02*
X135744857Y-99126318D01*
X137377714Y-98279651D02*
X137377714Y-99126318D01*
X137075333Y-97795842D02*
X136772952Y-98702984D01*
X136772952Y-98702984D02*
X137559143Y-98702984D01*
X128820333Y-84273365D02*
X128759857Y-84333842D01*
X128759857Y-84333842D02*
X128578428Y-84394318D01*
X128578428Y-84394318D02*
X128457476Y-84394318D01*
X128457476Y-84394318D02*
X128276047Y-84333842D01*
X128276047Y-84333842D02*
X128155095Y-84212889D01*
X128155095Y-84212889D02*
X128094618Y-84091937D01*
X128094618Y-84091937D02*
X128034142Y-83850032D01*
X128034142Y-83850032D02*
X128034142Y-83668603D01*
X128034142Y-83668603D02*
X128094618Y-83426699D01*
X128094618Y-83426699D02*
X128155095Y-83305746D01*
X128155095Y-83305746D02*
X128276047Y-83184794D01*
X128276047Y-83184794D02*
X128457476Y-83124318D01*
X128457476Y-83124318D02*
X128578428Y-83124318D01*
X128578428Y-83124318D02*
X128759857Y-83184794D01*
X128759857Y-83184794D02*
X128820333Y-83245270D01*
X129908904Y-83124318D02*
X129666999Y-83124318D01*
X129666999Y-83124318D02*
X129546047Y-83184794D01*
X129546047Y-83184794D02*
X129485571Y-83245270D01*
X129485571Y-83245270D02*
X129364618Y-83426699D01*
X129364618Y-83426699D02*
X129304142Y-83668603D01*
X129304142Y-83668603D02*
X129304142Y-84152413D01*
X129304142Y-84152413D02*
X129364618Y-84273365D01*
X129364618Y-84273365D02*
X129425095Y-84333842D01*
X129425095Y-84333842D02*
X129546047Y-84394318D01*
X129546047Y-84394318D02*
X129787952Y-84394318D01*
X129787952Y-84394318D02*
X129908904Y-84333842D01*
X129908904Y-84333842D02*
X129969380Y-84273365D01*
X129969380Y-84273365D02*
X130029857Y-84152413D01*
X130029857Y-84152413D02*
X130029857Y-83850032D01*
X130029857Y-83850032D02*
X129969380Y-83729080D01*
X129969380Y-83729080D02*
X129908904Y-83668603D01*
X129908904Y-83668603D02*
X129787952Y-83608127D01*
X129787952Y-83608127D02*
X129546047Y-83608127D01*
X129546047Y-83608127D02*
X129425095Y-83668603D01*
X129425095Y-83668603D02*
X129364618Y-83729080D01*
X129364618Y-83729080D02*
X129304142Y-83850032D01*
D10*
X140594517Y-107739630D02*
X140546898Y-107787250D01*
X140546898Y-107787250D02*
X140404041Y-107834869D01*
X140404041Y-107834869D02*
X140308803Y-107834869D01*
X140308803Y-107834869D02*
X140165946Y-107787250D01*
X140165946Y-107787250D02*
X140070708Y-107692011D01*
X140070708Y-107692011D02*
X140023089Y-107596773D01*
X140023089Y-107596773D02*
X139975470Y-107406297D01*
X139975470Y-107406297D02*
X139975470Y-107263440D01*
X139975470Y-107263440D02*
X140023089Y-107072964D01*
X140023089Y-107072964D02*
X140070708Y-106977726D01*
X140070708Y-106977726D02*
X140165946Y-106882488D01*
X140165946Y-106882488D02*
X140308803Y-106834869D01*
X140308803Y-106834869D02*
X140404041Y-106834869D01*
X140404041Y-106834869D02*
X140546898Y-106882488D01*
X140546898Y-106882488D02*
X140594517Y-106930107D01*
X141546898Y-107834869D02*
X140975470Y-107834869D01*
X141261184Y-107834869D02*
X141261184Y-106834869D01*
X141261184Y-106834869D02*
X141165946Y-106977726D01*
X141165946Y-106977726D02*
X141070708Y-107072964D01*
X141070708Y-107072964D02*
X140975470Y-107120583D01*
X142023089Y-107834869D02*
X142213565Y-107834869D01*
X142213565Y-107834869D02*
X142308803Y-107787250D01*
X142308803Y-107787250D02*
X142356422Y-107739630D01*
X142356422Y-107739630D02*
X142451660Y-107596773D01*
X142451660Y-107596773D02*
X142499279Y-107406297D01*
X142499279Y-107406297D02*
X142499279Y-107025345D01*
X142499279Y-107025345D02*
X142451660Y-106930107D01*
X142451660Y-106930107D02*
X142404041Y-106882488D01*
X142404041Y-106882488D02*
X142308803Y-106834869D01*
X142308803Y-106834869D02*
X142118327Y-106834869D01*
X142118327Y-106834869D02*
X142023089Y-106882488D01*
X142023089Y-106882488D02*
X141975470Y-106930107D01*
X141975470Y-106930107D02*
X141927851Y-107025345D01*
X141927851Y-107025345D02*
X141927851Y-107263440D01*
X141927851Y-107263440D02*
X141975470Y-107358678D01*
X141975470Y-107358678D02*
X142023089Y-107406297D01*
X142023089Y-107406297D02*
X142118327Y-107453916D01*
X142118327Y-107453916D02*
X142308803Y-107453916D01*
X142308803Y-107453916D02*
X142404041Y-107406297D01*
X142404041Y-107406297D02*
X142451660Y-107358678D01*
X142451660Y-107358678D02*
X142499279Y-107263440D01*
D11*
X164234196Y-73605365D02*
X164173720Y-73665842D01*
X164173720Y-73665842D02*
X163992291Y-73726318D01*
X163992291Y-73726318D02*
X163871339Y-73726318D01*
X163871339Y-73726318D02*
X163689910Y-73665842D01*
X163689910Y-73665842D02*
X163568958Y-73544889D01*
X163568958Y-73544889D02*
X163508481Y-73423937D01*
X163508481Y-73423937D02*
X163448005Y-73182032D01*
X163448005Y-73182032D02*
X163448005Y-73000603D01*
X163448005Y-73000603D02*
X163508481Y-72758699D01*
X163508481Y-72758699D02*
X163568958Y-72637746D01*
X163568958Y-72637746D02*
X163689910Y-72516794D01*
X163689910Y-72516794D02*
X163871339Y-72456318D01*
X163871339Y-72456318D02*
X163992291Y-72456318D01*
X163992291Y-72456318D02*
X164173720Y-72516794D01*
X164173720Y-72516794D02*
X164234196Y-72577270D01*
X164718005Y-72577270D02*
X164778481Y-72516794D01*
X164778481Y-72516794D02*
X164899434Y-72456318D01*
X164899434Y-72456318D02*
X165201815Y-72456318D01*
X165201815Y-72456318D02*
X165322767Y-72516794D01*
X165322767Y-72516794D02*
X165383243Y-72577270D01*
X165383243Y-72577270D02*
X165443720Y-72698222D01*
X165443720Y-72698222D02*
X165443720Y-72819175D01*
X165443720Y-72819175D02*
X165383243Y-73000603D01*
X165383243Y-73000603D02*
X164657529Y-73726318D01*
X164657529Y-73726318D02*
X165443720Y-73726318D01*
X166532291Y-72879651D02*
X166532291Y-73726318D01*
X166229910Y-72395842D02*
X165927529Y-73302984D01*
X165927529Y-73302984D02*
X166713720Y-73302984D01*
X136440333Y-84273365D02*
X136379857Y-84333842D01*
X136379857Y-84333842D02*
X136198428Y-84394318D01*
X136198428Y-84394318D02*
X136077476Y-84394318D01*
X136077476Y-84394318D02*
X135896047Y-84333842D01*
X135896047Y-84333842D02*
X135775095Y-84212889D01*
X135775095Y-84212889D02*
X135714618Y-84091937D01*
X135714618Y-84091937D02*
X135654142Y-83850032D01*
X135654142Y-83850032D02*
X135654142Y-83668603D01*
X135654142Y-83668603D02*
X135714618Y-83426699D01*
X135714618Y-83426699D02*
X135775095Y-83305746D01*
X135775095Y-83305746D02*
X135896047Y-83184794D01*
X135896047Y-83184794D02*
X136077476Y-83124318D01*
X136077476Y-83124318D02*
X136198428Y-83124318D01*
X136198428Y-83124318D02*
X136379857Y-83184794D01*
X136379857Y-83184794D02*
X136440333Y-83245270D01*
X137045095Y-84394318D02*
X137286999Y-84394318D01*
X137286999Y-84394318D02*
X137407952Y-84333842D01*
X137407952Y-84333842D02*
X137468428Y-84273365D01*
X137468428Y-84273365D02*
X137589380Y-84091937D01*
X137589380Y-84091937D02*
X137649857Y-83850032D01*
X137649857Y-83850032D02*
X137649857Y-83366222D01*
X137649857Y-83366222D02*
X137589380Y-83245270D01*
X137589380Y-83245270D02*
X137528904Y-83184794D01*
X137528904Y-83184794D02*
X137407952Y-83124318D01*
X137407952Y-83124318D02*
X137166047Y-83124318D01*
X137166047Y-83124318D02*
X137045095Y-83184794D01*
X137045095Y-83184794D02*
X136984618Y-83245270D01*
X136984618Y-83245270D02*
X136924142Y-83366222D01*
X136924142Y-83366222D02*
X136924142Y-83668603D01*
X136924142Y-83668603D02*
X136984618Y-83789556D01*
X136984618Y-83789556D02*
X137045095Y-83850032D01*
X137045095Y-83850032D02*
X137166047Y-83910508D01*
X137166047Y-83910508D02*
X137407952Y-83910508D01*
X137407952Y-83910508D02*
X137528904Y-83850032D01*
X137528904Y-83850032D02*
X137589380Y-83789556D01*
X137589380Y-83789556D02*
X137649857Y-83668603D01*
D12*
X145732667Y-90577200D02*
X145875524Y-90624819D01*
X145875524Y-90624819D02*
X146113619Y-90624819D01*
X146113619Y-90624819D02*
X146208857Y-90577200D01*
X146208857Y-90577200D02*
X146256476Y-90529580D01*
X146256476Y-90529580D02*
X146304095Y-90434342D01*
X146304095Y-90434342D02*
X146304095Y-90339104D01*
X146304095Y-90339104D02*
X146256476Y-90243866D01*
X146256476Y-90243866D02*
X146208857Y-90196247D01*
X146208857Y-90196247D02*
X146113619Y-90148628D01*
X146113619Y-90148628D02*
X145923143Y-90101009D01*
X145923143Y-90101009D02*
X145827905Y-90053390D01*
X145827905Y-90053390D02*
X145780286Y-90005771D01*
X145780286Y-90005771D02*
X145732667Y-89910533D01*
X145732667Y-89910533D02*
X145732667Y-89815295D01*
X145732667Y-89815295D02*
X145780286Y-89720057D01*
X145780286Y-89720057D02*
X145827905Y-89672438D01*
X145827905Y-89672438D02*
X145923143Y-89624819D01*
X145923143Y-89624819D02*
X146161238Y-89624819D01*
X146161238Y-89624819D02*
X146304095Y-89672438D01*
X146637429Y-89624819D02*
X146875524Y-90624819D01*
X146875524Y-90624819D02*
X147066000Y-89910533D01*
X147066000Y-89910533D02*
X147256476Y-90624819D01*
X147256476Y-90624819D02*
X147494572Y-89624819D01*
X148399333Y-90624819D02*
X147827905Y-90624819D01*
X148113619Y-90624819D02*
X148113619Y-89624819D01*
X148113619Y-89624819D02*
X148018381Y-89767676D01*
X148018381Y-89767676D02*
X147923143Y-89862914D01*
X147923143Y-89862914D02*
X147827905Y-89910533D01*
X155918819Y-80771999D02*
X156156914Y-80771999D01*
X156061676Y-81010094D02*
X156156914Y-80771999D01*
X156156914Y-80771999D02*
X156061676Y-80533904D01*
X156347390Y-80914856D02*
X156156914Y-80771999D01*
X156156914Y-80771999D02*
X156347390Y-80629142D01*
X158279180Y-80772000D02*
X158041085Y-80772000D01*
X158136323Y-80533905D02*
X158041085Y-80772000D01*
X158041085Y-80772000D02*
X158136323Y-81010095D01*
X157850609Y-80629143D02*
X158041085Y-80772000D01*
X158041085Y-80772000D02*
X157850609Y-80914857D01*
X145462666Y-62446819D02*
X145462666Y-63161104D01*
X145462666Y-63161104D02*
X145415047Y-63303961D01*
X145415047Y-63303961D02*
X145319809Y-63399200D01*
X145319809Y-63399200D02*
X145176952Y-63446819D01*
X145176952Y-63446819D02*
X145081714Y-63446819D01*
X145843619Y-62446819D02*
X146462666Y-62446819D01*
X146462666Y-62446819D02*
X146129333Y-62827771D01*
X146129333Y-62827771D02*
X146272190Y-62827771D01*
X146272190Y-62827771D02*
X146367428Y-62875390D01*
X146367428Y-62875390D02*
X146415047Y-62923009D01*
X146415047Y-62923009D02*
X146462666Y-63018247D01*
X146462666Y-63018247D02*
X146462666Y-63256342D01*
X146462666Y-63256342D02*
X146415047Y-63351580D01*
X146415047Y-63351580D02*
X146367428Y-63399200D01*
X146367428Y-63399200D02*
X146272190Y-63446819D01*
X146272190Y-63446819D02*
X145986476Y-63446819D01*
X145986476Y-63446819D02*
X145891238Y-63399200D01*
X145891238Y-63399200D02*
X145843619Y-63351580D01*
D11*
X127199571Y-93925365D02*
X127139095Y-93985842D01*
X127139095Y-93985842D02*
X126957666Y-94046318D01*
X126957666Y-94046318D02*
X126836714Y-94046318D01*
X126836714Y-94046318D02*
X126655285Y-93985842D01*
X126655285Y-93985842D02*
X126534333Y-93864889D01*
X126534333Y-93864889D02*
X126473856Y-93743937D01*
X126473856Y-93743937D02*
X126413380Y-93502032D01*
X126413380Y-93502032D02*
X126413380Y-93320603D01*
X126413380Y-93320603D02*
X126473856Y-93078699D01*
X126473856Y-93078699D02*
X126534333Y-92957746D01*
X126534333Y-92957746D02*
X126655285Y-92836794D01*
X126655285Y-92836794D02*
X126836714Y-92776318D01*
X126836714Y-92776318D02*
X126957666Y-92776318D01*
X126957666Y-92776318D02*
X127139095Y-92836794D01*
X127139095Y-92836794D02*
X127199571Y-92897270D01*
X128409095Y-94046318D02*
X127683380Y-94046318D01*
X128046237Y-94046318D02*
X128046237Y-92776318D01*
X128046237Y-92776318D02*
X127925285Y-92957746D01*
X127925285Y-92957746D02*
X127804333Y-93078699D01*
X127804333Y-93078699D02*
X127683380Y-93139175D01*
X129497666Y-93199651D02*
X129497666Y-94046318D01*
X129195285Y-92715842D02*
X128892904Y-93622984D01*
X128892904Y-93622984D02*
X129679095Y-93622984D01*
X134832946Y-104282615D02*
X134772470Y-104343092D01*
X134772470Y-104343092D02*
X134591041Y-104403568D01*
X134591041Y-104403568D02*
X134470089Y-104403568D01*
X134470089Y-104403568D02*
X134288660Y-104343092D01*
X134288660Y-104343092D02*
X134167708Y-104222139D01*
X134167708Y-104222139D02*
X134107231Y-104101187D01*
X134107231Y-104101187D02*
X134046755Y-103859282D01*
X134046755Y-103859282D02*
X134046755Y-103677853D01*
X134046755Y-103677853D02*
X134107231Y-103435949D01*
X134107231Y-103435949D02*
X134167708Y-103314996D01*
X134167708Y-103314996D02*
X134288660Y-103194044D01*
X134288660Y-103194044D02*
X134470089Y-103133568D01*
X134470089Y-103133568D02*
X134591041Y-103133568D01*
X134591041Y-103133568D02*
X134772470Y-103194044D01*
X134772470Y-103194044D02*
X134832946Y-103254520D01*
X135316755Y-103254520D02*
X135377231Y-103194044D01*
X135377231Y-103194044D02*
X135498184Y-103133568D01*
X135498184Y-103133568D02*
X135800565Y-103133568D01*
X135800565Y-103133568D02*
X135921517Y-103194044D01*
X135921517Y-103194044D02*
X135981993Y-103254520D01*
X135981993Y-103254520D02*
X136042470Y-103375472D01*
X136042470Y-103375472D02*
X136042470Y-103496425D01*
X136042470Y-103496425D02*
X135981993Y-103677853D01*
X135981993Y-103677853D02*
X135256279Y-104403568D01*
X135256279Y-104403568D02*
X136042470Y-104403568D01*
X136828660Y-103133568D02*
X136949613Y-103133568D01*
X136949613Y-103133568D02*
X137070565Y-103194044D01*
X137070565Y-103194044D02*
X137131041Y-103254520D01*
X137131041Y-103254520D02*
X137191517Y-103375472D01*
X137191517Y-103375472D02*
X137251994Y-103617377D01*
X137251994Y-103617377D02*
X137251994Y-103919758D01*
X137251994Y-103919758D02*
X137191517Y-104161663D01*
X137191517Y-104161663D02*
X137131041Y-104282615D01*
X137131041Y-104282615D02*
X137070565Y-104343092D01*
X137070565Y-104343092D02*
X136949613Y-104403568D01*
X136949613Y-104403568D02*
X136828660Y-104403568D01*
X136828660Y-104403568D02*
X136707708Y-104343092D01*
X136707708Y-104343092D02*
X136647232Y-104282615D01*
X136647232Y-104282615D02*
X136586755Y-104161663D01*
X136586755Y-104161663D02*
X136526279Y-103919758D01*
X136526279Y-103919758D02*
X136526279Y-103617377D01*
X136526279Y-103617377D02*
X136586755Y-103375472D01*
X136586755Y-103375472D02*
X136647232Y-103254520D01*
X136647232Y-103254520D02*
X136707708Y-103194044D01*
X136707708Y-103194044D02*
X136828660Y-103133568D01*
D12*
X116294819Y-91462583D02*
X117009104Y-91462583D01*
X117009104Y-91462583D02*
X117151961Y-91510202D01*
X117151961Y-91510202D02*
X117247200Y-91605440D01*
X117247200Y-91605440D02*
X117294819Y-91748297D01*
X117294819Y-91748297D02*
X117294819Y-91843535D01*
X116294819Y-90510202D02*
X116294819Y-90986392D01*
X116294819Y-90986392D02*
X116771009Y-91034011D01*
X116771009Y-91034011D02*
X116723390Y-90986392D01*
X116723390Y-90986392D02*
X116675771Y-90891154D01*
X116675771Y-90891154D02*
X116675771Y-90653059D01*
X116675771Y-90653059D02*
X116723390Y-90557821D01*
X116723390Y-90557821D02*
X116771009Y-90510202D01*
X116771009Y-90510202D02*
X116866247Y-90462583D01*
X116866247Y-90462583D02*
X117104342Y-90462583D01*
X117104342Y-90462583D02*
X117199580Y-90510202D01*
X117199580Y-90510202D02*
X117247200Y-90557821D01*
X117247200Y-90557821D02*
X117294819Y-90653059D01*
X117294819Y-90653059D02*
X117294819Y-90891154D01*
X117294819Y-90891154D02*
X117247200Y-90986392D01*
X117247200Y-90986392D02*
X117199580Y-91034011D01*
D11*
X134311571Y-114245365D02*
X134251095Y-114305842D01*
X134251095Y-114305842D02*
X134069666Y-114366318D01*
X134069666Y-114366318D02*
X133948714Y-114366318D01*
X133948714Y-114366318D02*
X133767285Y-114305842D01*
X133767285Y-114305842D02*
X133646333Y-114184889D01*
X133646333Y-114184889D02*
X133585856Y-114063937D01*
X133585856Y-114063937D02*
X133525380Y-113822032D01*
X133525380Y-113822032D02*
X133525380Y-113640603D01*
X133525380Y-113640603D02*
X133585856Y-113398699D01*
X133585856Y-113398699D02*
X133646333Y-113277746D01*
X133646333Y-113277746D02*
X133767285Y-113156794D01*
X133767285Y-113156794D02*
X133948714Y-113096318D01*
X133948714Y-113096318D02*
X134069666Y-113096318D01*
X134069666Y-113096318D02*
X134251095Y-113156794D01*
X134251095Y-113156794D02*
X134311571Y-113217270D01*
X135521095Y-114366318D02*
X134795380Y-114366318D01*
X135158237Y-114366318D02*
X135158237Y-113096318D01*
X135158237Y-113096318D02*
X135037285Y-113277746D01*
X135037285Y-113277746D02*
X134916333Y-113398699D01*
X134916333Y-113398699D02*
X134795380Y-113459175D01*
X135944428Y-113096318D02*
X136791095Y-113096318D01*
X136791095Y-113096318D02*
X136246809Y-114366318D01*
X138883571Y-84273365D02*
X138823095Y-84333842D01*
X138823095Y-84333842D02*
X138641666Y-84394318D01*
X138641666Y-84394318D02*
X138520714Y-84394318D01*
X138520714Y-84394318D02*
X138339285Y-84333842D01*
X138339285Y-84333842D02*
X138218333Y-84212889D01*
X138218333Y-84212889D02*
X138157856Y-84091937D01*
X138157856Y-84091937D02*
X138097380Y-83850032D01*
X138097380Y-83850032D02*
X138097380Y-83668603D01*
X138097380Y-83668603D02*
X138157856Y-83426699D01*
X138157856Y-83426699D02*
X138218333Y-83305746D01*
X138218333Y-83305746D02*
X138339285Y-83184794D01*
X138339285Y-83184794D02*
X138520714Y-83124318D01*
X138520714Y-83124318D02*
X138641666Y-83124318D01*
X138641666Y-83124318D02*
X138823095Y-83184794D01*
X138823095Y-83184794D02*
X138883571Y-83245270D01*
X140093095Y-84394318D02*
X139367380Y-84394318D01*
X139730237Y-84394318D02*
X139730237Y-83124318D01*
X139730237Y-83124318D02*
X139609285Y-83305746D01*
X139609285Y-83305746D02*
X139488333Y-83426699D01*
X139488333Y-83426699D02*
X139367380Y-83487175D01*
X140879285Y-83124318D02*
X141000238Y-83124318D01*
X141000238Y-83124318D02*
X141121190Y-83184794D01*
X141121190Y-83184794D02*
X141181666Y-83245270D01*
X141181666Y-83245270D02*
X141242142Y-83366222D01*
X141242142Y-83366222D02*
X141302619Y-83608127D01*
X141302619Y-83608127D02*
X141302619Y-83910508D01*
X141302619Y-83910508D02*
X141242142Y-84152413D01*
X141242142Y-84152413D02*
X141181666Y-84273365D01*
X141181666Y-84273365D02*
X141121190Y-84333842D01*
X141121190Y-84333842D02*
X141000238Y-84394318D01*
X141000238Y-84394318D02*
X140879285Y-84394318D01*
X140879285Y-84394318D02*
X140758333Y-84333842D01*
X140758333Y-84333842D02*
X140697857Y-84273365D01*
X140697857Y-84273365D02*
X140637380Y-84152413D01*
X140637380Y-84152413D02*
X140576904Y-83910508D01*
X140576904Y-83910508D02*
X140576904Y-83608127D01*
X140576904Y-83608127D02*
X140637380Y-83366222D01*
X140637380Y-83366222D02*
X140697857Y-83245270D01*
X140697857Y-83245270D02*
X140758333Y-83184794D01*
X140758333Y-83184794D02*
X140879285Y-83124318D01*
X131360333Y-84273365D02*
X131299857Y-84333842D01*
X131299857Y-84333842D02*
X131118428Y-84394318D01*
X131118428Y-84394318D02*
X130997476Y-84394318D01*
X130997476Y-84394318D02*
X130816047Y-84333842D01*
X130816047Y-84333842D02*
X130695095Y-84212889D01*
X130695095Y-84212889D02*
X130634618Y-84091937D01*
X130634618Y-84091937D02*
X130574142Y-83850032D01*
X130574142Y-83850032D02*
X130574142Y-83668603D01*
X130574142Y-83668603D02*
X130634618Y-83426699D01*
X130634618Y-83426699D02*
X130695095Y-83305746D01*
X130695095Y-83305746D02*
X130816047Y-83184794D01*
X130816047Y-83184794D02*
X130997476Y-83124318D01*
X130997476Y-83124318D02*
X131118428Y-83124318D01*
X131118428Y-83124318D02*
X131299857Y-83184794D01*
X131299857Y-83184794D02*
X131360333Y-83245270D01*
X131783666Y-83124318D02*
X132630333Y-83124318D01*
X132630333Y-83124318D02*
X132086047Y-84394318D01*
X133900333Y-84273365D02*
X133839857Y-84333842D01*
X133839857Y-84333842D02*
X133658428Y-84394318D01*
X133658428Y-84394318D02*
X133537476Y-84394318D01*
X133537476Y-84394318D02*
X133356047Y-84333842D01*
X133356047Y-84333842D02*
X133235095Y-84212889D01*
X133235095Y-84212889D02*
X133174618Y-84091937D01*
X133174618Y-84091937D02*
X133114142Y-83850032D01*
X133114142Y-83850032D02*
X133114142Y-83668603D01*
X133114142Y-83668603D02*
X133174618Y-83426699D01*
X133174618Y-83426699D02*
X133235095Y-83305746D01*
X133235095Y-83305746D02*
X133356047Y-83184794D01*
X133356047Y-83184794D02*
X133537476Y-83124318D01*
X133537476Y-83124318D02*
X133658428Y-83124318D01*
X133658428Y-83124318D02*
X133839857Y-83184794D01*
X133839857Y-83184794D02*
X133900333Y-83245270D01*
X134626047Y-83668603D02*
X134505095Y-83608127D01*
X134505095Y-83608127D02*
X134444618Y-83547651D01*
X134444618Y-83547651D02*
X134384142Y-83426699D01*
X134384142Y-83426699D02*
X134384142Y-83366222D01*
X134384142Y-83366222D02*
X134444618Y-83245270D01*
X134444618Y-83245270D02*
X134505095Y-83184794D01*
X134505095Y-83184794D02*
X134626047Y-83124318D01*
X134626047Y-83124318D02*
X134867952Y-83124318D01*
X134867952Y-83124318D02*
X134988904Y-83184794D01*
X134988904Y-83184794D02*
X135049380Y-83245270D01*
X135049380Y-83245270D02*
X135109857Y-83366222D01*
X135109857Y-83366222D02*
X135109857Y-83426699D01*
X135109857Y-83426699D02*
X135049380Y-83547651D01*
X135049380Y-83547651D02*
X134988904Y-83608127D01*
X134988904Y-83608127D02*
X134867952Y-83668603D01*
X134867952Y-83668603D02*
X134626047Y-83668603D01*
X134626047Y-83668603D02*
X134505095Y-83729080D01*
X134505095Y-83729080D02*
X134444618Y-83789556D01*
X134444618Y-83789556D02*
X134384142Y-83910508D01*
X134384142Y-83910508D02*
X134384142Y-84152413D01*
X134384142Y-84152413D02*
X134444618Y-84273365D01*
X134444618Y-84273365D02*
X134505095Y-84333842D01*
X134505095Y-84333842D02*
X134626047Y-84394318D01*
X134626047Y-84394318D02*
X134867952Y-84394318D01*
X134867952Y-84394318D02*
X134988904Y-84333842D01*
X134988904Y-84333842D02*
X135049380Y-84273365D01*
X135049380Y-84273365D02*
X135109857Y-84152413D01*
X135109857Y-84152413D02*
X135109857Y-83910508D01*
X135109857Y-83910508D02*
X135049380Y-83789556D01*
X135049380Y-83789556D02*
X134988904Y-83729080D01*
X134988904Y-83729080D02*
X134867952Y-83668603D01*
X134311571Y-119579365D02*
X134251095Y-119639842D01*
X134251095Y-119639842D02*
X134069666Y-119700318D01*
X134069666Y-119700318D02*
X133948714Y-119700318D01*
X133948714Y-119700318D02*
X133767285Y-119639842D01*
X133767285Y-119639842D02*
X133646333Y-119518889D01*
X133646333Y-119518889D02*
X133585856Y-119397937D01*
X133585856Y-119397937D02*
X133525380Y-119156032D01*
X133525380Y-119156032D02*
X133525380Y-118974603D01*
X133525380Y-118974603D02*
X133585856Y-118732699D01*
X133585856Y-118732699D02*
X133646333Y-118611746D01*
X133646333Y-118611746D02*
X133767285Y-118490794D01*
X133767285Y-118490794D02*
X133948714Y-118430318D01*
X133948714Y-118430318D02*
X134069666Y-118430318D01*
X134069666Y-118430318D02*
X134251095Y-118490794D01*
X134251095Y-118490794D02*
X134311571Y-118551270D01*
X135521095Y-119700318D02*
X134795380Y-119700318D01*
X135158237Y-119700318D02*
X135158237Y-118430318D01*
X135158237Y-118430318D02*
X135037285Y-118611746D01*
X135037285Y-118611746D02*
X134916333Y-118732699D01*
X134916333Y-118732699D02*
X134795380Y-118793175D01*
X136246809Y-118974603D02*
X136125857Y-118914127D01*
X136125857Y-118914127D02*
X136065380Y-118853651D01*
X136065380Y-118853651D02*
X136004904Y-118732699D01*
X136004904Y-118732699D02*
X136004904Y-118672222D01*
X136004904Y-118672222D02*
X136065380Y-118551270D01*
X136065380Y-118551270D02*
X136125857Y-118490794D01*
X136125857Y-118490794D02*
X136246809Y-118430318D01*
X136246809Y-118430318D02*
X136488714Y-118430318D01*
X136488714Y-118430318D02*
X136609666Y-118490794D01*
X136609666Y-118490794D02*
X136670142Y-118551270D01*
X136670142Y-118551270D02*
X136730619Y-118672222D01*
X136730619Y-118672222D02*
X136730619Y-118732699D01*
X136730619Y-118732699D02*
X136670142Y-118853651D01*
X136670142Y-118853651D02*
X136609666Y-118914127D01*
X136609666Y-118914127D02*
X136488714Y-118974603D01*
X136488714Y-118974603D02*
X136246809Y-118974603D01*
X136246809Y-118974603D02*
X136125857Y-119035080D01*
X136125857Y-119035080D02*
X136065380Y-119095556D01*
X136065380Y-119095556D02*
X136004904Y-119216508D01*
X136004904Y-119216508D02*
X136004904Y-119458413D01*
X136004904Y-119458413D02*
X136065380Y-119579365D01*
X136065380Y-119579365D02*
X136125857Y-119639842D01*
X136125857Y-119639842D02*
X136246809Y-119700318D01*
X136246809Y-119700318D02*
X136488714Y-119700318D01*
X136488714Y-119700318D02*
X136609666Y-119639842D01*
X136609666Y-119639842D02*
X136670142Y-119579365D01*
X136670142Y-119579365D02*
X136730619Y-119458413D01*
X136730619Y-119458413D02*
X136730619Y-119216508D01*
X136730619Y-119216508D02*
X136670142Y-119095556D01*
X136670142Y-119095556D02*
X136609666Y-119035080D01*
X136609666Y-119035080D02*
X136488714Y-118974603D01*
D12*
X154044667Y-89008295D02*
X153778000Y-88627342D01*
X153587524Y-89008295D02*
X153587524Y-88208295D01*
X153587524Y-88208295D02*
X153892286Y-88208295D01*
X153892286Y-88208295D02*
X153968476Y-88246390D01*
X153968476Y-88246390D02*
X154006571Y-88284485D01*
X154006571Y-88284485D02*
X154044667Y-88360676D01*
X154044667Y-88360676D02*
X154044667Y-88474961D01*
X154044667Y-88474961D02*
X154006571Y-88551152D01*
X154006571Y-88551152D02*
X153968476Y-88589247D01*
X153968476Y-88589247D02*
X153892286Y-88627342D01*
X153892286Y-88627342D02*
X153587524Y-88627342D01*
X154806571Y-89008295D02*
X154349428Y-89008295D01*
X154578000Y-89008295D02*
X154578000Y-88208295D01*
X154578000Y-88208295D02*
X154501809Y-88322580D01*
X154501809Y-88322580D02*
X154425619Y-88398771D01*
X154425619Y-88398771D02*
X154349428Y-88436866D01*
D11*
X157269612Y-104403568D02*
X157269612Y-103133568D01*
X158600089Y-104282615D02*
X158539613Y-104343092D01*
X158539613Y-104343092D02*
X158358184Y-104403568D01*
X158358184Y-104403568D02*
X158237232Y-104403568D01*
X158237232Y-104403568D02*
X158055803Y-104343092D01*
X158055803Y-104343092D02*
X157934851Y-104222139D01*
X157934851Y-104222139D02*
X157874374Y-104101187D01*
X157874374Y-104101187D02*
X157813898Y-103859282D01*
X157813898Y-103859282D02*
X157813898Y-103677853D01*
X157813898Y-103677853D02*
X157874374Y-103435949D01*
X157874374Y-103435949D02*
X157934851Y-103314996D01*
X157934851Y-103314996D02*
X158055803Y-103194044D01*
X158055803Y-103194044D02*
X158237232Y-103133568D01*
X158237232Y-103133568D02*
X158358184Y-103133568D01*
X158358184Y-103133568D02*
X158539613Y-103194044D01*
X158539613Y-103194044D02*
X158600089Y-103254520D01*
X159809613Y-104403568D02*
X159083898Y-104403568D01*
X159446755Y-104403568D02*
X159446755Y-103133568D01*
X159446755Y-103133568D02*
X159325803Y-103314996D01*
X159325803Y-103314996D02*
X159204851Y-103435949D01*
X159204851Y-103435949D02*
X159083898Y-103496425D01*
X133900333Y-76653365D02*
X133839857Y-76713842D01*
X133839857Y-76713842D02*
X133658428Y-76774318D01*
X133658428Y-76774318D02*
X133537476Y-76774318D01*
X133537476Y-76774318D02*
X133356047Y-76713842D01*
X133356047Y-76713842D02*
X133235095Y-76592889D01*
X133235095Y-76592889D02*
X133174618Y-76471937D01*
X133174618Y-76471937D02*
X133114142Y-76230032D01*
X133114142Y-76230032D02*
X133114142Y-76048603D01*
X133114142Y-76048603D02*
X133174618Y-75806699D01*
X133174618Y-75806699D02*
X133235095Y-75685746D01*
X133235095Y-75685746D02*
X133356047Y-75564794D01*
X133356047Y-75564794D02*
X133537476Y-75504318D01*
X133537476Y-75504318D02*
X133658428Y-75504318D01*
X133658428Y-75504318D02*
X133839857Y-75564794D01*
X133839857Y-75564794D02*
X133900333Y-75625270D01*
X134323666Y-75504318D02*
X135109857Y-75504318D01*
X135109857Y-75504318D02*
X134686523Y-75988127D01*
X134686523Y-75988127D02*
X134867952Y-75988127D01*
X134867952Y-75988127D02*
X134988904Y-76048603D01*
X134988904Y-76048603D02*
X135049380Y-76109080D01*
X135049380Y-76109080D02*
X135109857Y-76230032D01*
X135109857Y-76230032D02*
X135109857Y-76532413D01*
X135109857Y-76532413D02*
X135049380Y-76653365D01*
X135049380Y-76653365D02*
X134988904Y-76713842D01*
X134988904Y-76713842D02*
X134867952Y-76774318D01*
X134867952Y-76774318D02*
X134505095Y-76774318D01*
X134505095Y-76774318D02*
X134384142Y-76713842D01*
X134384142Y-76713842D02*
X134323666Y-76653365D01*
X134311571Y-116023365D02*
X134251095Y-116083842D01*
X134251095Y-116083842D02*
X134069666Y-116144318D01*
X134069666Y-116144318D02*
X133948714Y-116144318D01*
X133948714Y-116144318D02*
X133767285Y-116083842D01*
X133767285Y-116083842D02*
X133646333Y-115962889D01*
X133646333Y-115962889D02*
X133585856Y-115841937D01*
X133585856Y-115841937D02*
X133525380Y-115600032D01*
X133525380Y-115600032D02*
X133525380Y-115418603D01*
X133525380Y-115418603D02*
X133585856Y-115176699D01*
X133585856Y-115176699D02*
X133646333Y-115055746D01*
X133646333Y-115055746D02*
X133767285Y-114934794D01*
X133767285Y-114934794D02*
X133948714Y-114874318D01*
X133948714Y-114874318D02*
X134069666Y-114874318D01*
X134069666Y-114874318D02*
X134251095Y-114934794D01*
X134251095Y-114934794D02*
X134311571Y-114995270D01*
X135521095Y-116144318D02*
X134795380Y-116144318D01*
X135158237Y-116144318D02*
X135158237Y-114874318D01*
X135158237Y-114874318D02*
X135037285Y-115055746D01*
X135037285Y-115055746D02*
X134916333Y-115176699D01*
X134916333Y-115176699D02*
X134795380Y-115237175D01*
X136609666Y-114874318D02*
X136367761Y-114874318D01*
X136367761Y-114874318D02*
X136246809Y-114934794D01*
X136246809Y-114934794D02*
X136186333Y-114995270D01*
X136186333Y-114995270D02*
X136065380Y-115176699D01*
X136065380Y-115176699D02*
X136004904Y-115418603D01*
X136004904Y-115418603D02*
X136004904Y-115902413D01*
X136004904Y-115902413D02*
X136065380Y-116023365D01*
X136065380Y-116023365D02*
X136125857Y-116083842D01*
X136125857Y-116083842D02*
X136246809Y-116144318D01*
X136246809Y-116144318D02*
X136488714Y-116144318D01*
X136488714Y-116144318D02*
X136609666Y-116083842D01*
X136609666Y-116083842D02*
X136670142Y-116023365D01*
X136670142Y-116023365D02*
X136730619Y-115902413D01*
X136730619Y-115902413D02*
X136730619Y-115600032D01*
X136730619Y-115600032D02*
X136670142Y-115479080D01*
X136670142Y-115479080D02*
X136609666Y-115418603D01*
X136609666Y-115418603D02*
X136488714Y-115358127D01*
X136488714Y-115358127D02*
X136246809Y-115358127D01*
X136246809Y-115358127D02*
X136125857Y-115418603D01*
X136125857Y-115418603D02*
X136065380Y-115479080D01*
X136065380Y-115479080D02*
X136004904Y-115600032D01*
X179408667Y-109540318D02*
X179408667Y-110447461D01*
X179408667Y-110447461D02*
X179348190Y-110628889D01*
X179348190Y-110628889D02*
X179227238Y-110749842D01*
X179227238Y-110749842D02*
X179045809Y-110810318D01*
X179045809Y-110810318D02*
X178924857Y-110810318D01*
X179952952Y-109661270D02*
X180013428Y-109600794D01*
X180013428Y-109600794D02*
X180134381Y-109540318D01*
X180134381Y-109540318D02*
X180436762Y-109540318D01*
X180436762Y-109540318D02*
X180557714Y-109600794D01*
X180557714Y-109600794D02*
X180618190Y-109661270D01*
X180618190Y-109661270D02*
X180678667Y-109782222D01*
X180678667Y-109782222D02*
X180678667Y-109903175D01*
X180678667Y-109903175D02*
X180618190Y-110084603D01*
X180618190Y-110084603D02*
X179892476Y-110810318D01*
X179892476Y-110810318D02*
X180678667Y-110810318D01*
X145076333Y-105222318D02*
X144652999Y-104617556D01*
X144350618Y-105222318D02*
X144350618Y-103952318D01*
X144350618Y-103952318D02*
X144834428Y-103952318D01*
X144834428Y-103952318D02*
X144955380Y-104012794D01*
X144955380Y-104012794D02*
X145015857Y-104073270D01*
X145015857Y-104073270D02*
X145076333Y-104194222D01*
X145076333Y-104194222D02*
X145076333Y-104375651D01*
X145076333Y-104375651D02*
X145015857Y-104496603D01*
X145015857Y-104496603D02*
X144955380Y-104557080D01*
X144955380Y-104557080D02*
X144834428Y-104617556D01*
X144834428Y-104617556D02*
X144350618Y-104617556D01*
X145499666Y-103952318D02*
X146285857Y-103952318D01*
X146285857Y-103952318D02*
X145862523Y-104436127D01*
X145862523Y-104436127D02*
X146043952Y-104436127D01*
X146043952Y-104436127D02*
X146164904Y-104496603D01*
X146164904Y-104496603D02*
X146225380Y-104557080D01*
X146225380Y-104557080D02*
X146285857Y-104678032D01*
X146285857Y-104678032D02*
X146285857Y-104980413D01*
X146285857Y-104980413D02*
X146225380Y-105101365D01*
X146225380Y-105101365D02*
X146164904Y-105161842D01*
X146164904Y-105161842D02*
X146043952Y-105222318D01*
X146043952Y-105222318D02*
X145681095Y-105222318D01*
X145681095Y-105222318D02*
X145560142Y-105161842D01*
X145560142Y-105161842D02*
X145499666Y-105101365D01*
X142947571Y-72202318D02*
X142524237Y-71597556D01*
X142221856Y-72202318D02*
X142221856Y-70932318D01*
X142221856Y-70932318D02*
X142705666Y-70932318D01*
X142705666Y-70932318D02*
X142826618Y-70992794D01*
X142826618Y-70992794D02*
X142887095Y-71053270D01*
X142887095Y-71053270D02*
X142947571Y-71174222D01*
X142947571Y-71174222D02*
X142947571Y-71355651D01*
X142947571Y-71355651D02*
X142887095Y-71476603D01*
X142887095Y-71476603D02*
X142826618Y-71537080D01*
X142826618Y-71537080D02*
X142705666Y-71597556D01*
X142705666Y-71597556D02*
X142221856Y-71597556D01*
X144157095Y-72202318D02*
X143431380Y-72202318D01*
X143794237Y-72202318D02*
X143794237Y-70932318D01*
X143794237Y-70932318D02*
X143673285Y-71113746D01*
X143673285Y-71113746D02*
X143552333Y-71234699D01*
X143552333Y-71234699D02*
X143431380Y-71295175D01*
X144943285Y-70932318D02*
X145064238Y-70932318D01*
X145064238Y-70932318D02*
X145185190Y-70992794D01*
X145185190Y-70992794D02*
X145245666Y-71053270D01*
X145245666Y-71053270D02*
X145306142Y-71174222D01*
X145306142Y-71174222D02*
X145366619Y-71416127D01*
X145366619Y-71416127D02*
X145366619Y-71718508D01*
X145366619Y-71718508D02*
X145306142Y-71960413D01*
X145306142Y-71960413D02*
X145245666Y-72081365D01*
X145245666Y-72081365D02*
X145185190Y-72141842D01*
X145185190Y-72141842D02*
X145064238Y-72202318D01*
X145064238Y-72202318D02*
X144943285Y-72202318D01*
X144943285Y-72202318D02*
X144822333Y-72141842D01*
X144822333Y-72141842D02*
X144761857Y-72081365D01*
X144761857Y-72081365D02*
X144701380Y-71960413D01*
X144701380Y-71960413D02*
X144640904Y-71718508D01*
X144640904Y-71718508D02*
X144640904Y-71416127D01*
X144640904Y-71416127D02*
X144701380Y-71174222D01*
X144701380Y-71174222D02*
X144761857Y-71053270D01*
X144761857Y-71053270D02*
X144822333Y-70992794D01*
X144822333Y-70992794D02*
X144943285Y-70932318D01*
X156663571Y-76653365D02*
X156603095Y-76713842D01*
X156603095Y-76713842D02*
X156421666Y-76774318D01*
X156421666Y-76774318D02*
X156300714Y-76774318D01*
X156300714Y-76774318D02*
X156119285Y-76713842D01*
X156119285Y-76713842D02*
X155998333Y-76592889D01*
X155998333Y-76592889D02*
X155937856Y-76471937D01*
X155937856Y-76471937D02*
X155877380Y-76230032D01*
X155877380Y-76230032D02*
X155877380Y-76048603D01*
X155877380Y-76048603D02*
X155937856Y-75806699D01*
X155937856Y-75806699D02*
X155998333Y-75685746D01*
X155998333Y-75685746D02*
X156119285Y-75564794D01*
X156119285Y-75564794D02*
X156300714Y-75504318D01*
X156300714Y-75504318D02*
X156421666Y-75504318D01*
X156421666Y-75504318D02*
X156603095Y-75564794D01*
X156603095Y-75564794D02*
X156663571Y-75625270D01*
X157147380Y-75625270D02*
X157207856Y-75564794D01*
X157207856Y-75564794D02*
X157328809Y-75504318D01*
X157328809Y-75504318D02*
X157631190Y-75504318D01*
X157631190Y-75504318D02*
X157752142Y-75564794D01*
X157752142Y-75564794D02*
X157812618Y-75625270D01*
X157812618Y-75625270D02*
X157873095Y-75746222D01*
X157873095Y-75746222D02*
X157873095Y-75867175D01*
X157873095Y-75867175D02*
X157812618Y-76048603D01*
X157812618Y-76048603D02*
X157086904Y-76774318D01*
X157086904Y-76774318D02*
X157873095Y-76774318D01*
X158296428Y-75504318D02*
X159082619Y-75504318D01*
X159082619Y-75504318D02*
X158659285Y-75988127D01*
X158659285Y-75988127D02*
X158840714Y-75988127D01*
X158840714Y-75988127D02*
X158961666Y-76048603D01*
X158961666Y-76048603D02*
X159022142Y-76109080D01*
X159022142Y-76109080D02*
X159082619Y-76230032D01*
X159082619Y-76230032D02*
X159082619Y-76532413D01*
X159082619Y-76532413D02*
X159022142Y-76653365D01*
X159022142Y-76653365D02*
X158961666Y-76713842D01*
X158961666Y-76713842D02*
X158840714Y-76774318D01*
X158840714Y-76774318D02*
X158477857Y-76774318D01*
X158477857Y-76774318D02*
X158356904Y-76713842D01*
X158356904Y-76713842D02*
X158296428Y-76653365D01*
X131360333Y-76653365D02*
X131299857Y-76713842D01*
X131299857Y-76713842D02*
X131118428Y-76774318D01*
X131118428Y-76774318D02*
X130997476Y-76774318D01*
X130997476Y-76774318D02*
X130816047Y-76713842D01*
X130816047Y-76713842D02*
X130695095Y-76592889D01*
X130695095Y-76592889D02*
X130634618Y-76471937D01*
X130634618Y-76471937D02*
X130574142Y-76230032D01*
X130574142Y-76230032D02*
X130574142Y-76048603D01*
X130574142Y-76048603D02*
X130634618Y-75806699D01*
X130634618Y-75806699D02*
X130695095Y-75685746D01*
X130695095Y-75685746D02*
X130816047Y-75564794D01*
X130816047Y-75564794D02*
X130997476Y-75504318D01*
X130997476Y-75504318D02*
X131118428Y-75504318D01*
X131118428Y-75504318D02*
X131299857Y-75564794D01*
X131299857Y-75564794D02*
X131360333Y-75625270D01*
X131844142Y-75625270D02*
X131904618Y-75564794D01*
X131904618Y-75564794D02*
X132025571Y-75504318D01*
X132025571Y-75504318D02*
X132327952Y-75504318D01*
X132327952Y-75504318D02*
X132448904Y-75564794D01*
X132448904Y-75564794D02*
X132509380Y-75625270D01*
X132509380Y-75625270D02*
X132569857Y-75746222D01*
X132569857Y-75746222D02*
X132569857Y-75867175D01*
X132569857Y-75867175D02*
X132509380Y-76048603D01*
X132509380Y-76048603D02*
X131783666Y-76774318D01*
X131783666Y-76774318D02*
X132569857Y-76774318D01*
X168740667Y-88712318D02*
X168740667Y-89619461D01*
X168740667Y-89619461D02*
X168680190Y-89800889D01*
X168680190Y-89800889D02*
X168559238Y-89921842D01*
X168559238Y-89921842D02*
X168377809Y-89982318D01*
X168377809Y-89982318D02*
X168256857Y-89982318D01*
X170010667Y-89982318D02*
X169284952Y-89982318D01*
X169647809Y-89982318D02*
X169647809Y-88712318D01*
X169647809Y-88712318D02*
X169526857Y-88893746D01*
X169526857Y-88893746D02*
X169405905Y-89014699D01*
X169405905Y-89014699D02*
X169284952Y-89075175D01*
X144060333Y-74234318D02*
X143636999Y-73629556D01*
X143334618Y-74234318D02*
X143334618Y-72964318D01*
X143334618Y-72964318D02*
X143818428Y-72964318D01*
X143818428Y-72964318D02*
X143939380Y-73024794D01*
X143939380Y-73024794D02*
X143999857Y-73085270D01*
X143999857Y-73085270D02*
X144060333Y-73206222D01*
X144060333Y-73206222D02*
X144060333Y-73387651D01*
X144060333Y-73387651D02*
X143999857Y-73508603D01*
X143999857Y-73508603D02*
X143939380Y-73569080D01*
X143939380Y-73569080D02*
X143818428Y-73629556D01*
X143818428Y-73629556D02*
X143334618Y-73629556D01*
X144665095Y-74234318D02*
X144906999Y-74234318D01*
X144906999Y-74234318D02*
X145027952Y-74173842D01*
X145027952Y-74173842D02*
X145088428Y-74113365D01*
X145088428Y-74113365D02*
X145209380Y-73931937D01*
X145209380Y-73931937D02*
X145269857Y-73690032D01*
X145269857Y-73690032D02*
X145269857Y-73206222D01*
X145269857Y-73206222D02*
X145209380Y-73085270D01*
X145209380Y-73085270D02*
X145148904Y-73024794D01*
X145148904Y-73024794D02*
X145027952Y-72964318D01*
X145027952Y-72964318D02*
X144786047Y-72964318D01*
X144786047Y-72964318D02*
X144665095Y-73024794D01*
X144665095Y-73024794D02*
X144604618Y-73085270D01*
X144604618Y-73085270D02*
X144544142Y-73206222D01*
X144544142Y-73206222D02*
X144544142Y-73508603D01*
X144544142Y-73508603D02*
X144604618Y-73629556D01*
X144604618Y-73629556D02*
X144665095Y-73690032D01*
X144665095Y-73690032D02*
X144786047Y-73750508D01*
X144786047Y-73750508D02*
X145027952Y-73750508D01*
X145027952Y-73750508D02*
X145148904Y-73690032D01*
X145148904Y-73690032D02*
X145209380Y-73629556D01*
X145209380Y-73629556D02*
X145269857Y-73508603D01*
X134311571Y-93925365D02*
X134251095Y-93985842D01*
X134251095Y-93985842D02*
X134069666Y-94046318D01*
X134069666Y-94046318D02*
X133948714Y-94046318D01*
X133948714Y-94046318D02*
X133767285Y-93985842D01*
X133767285Y-93985842D02*
X133646333Y-93864889D01*
X133646333Y-93864889D02*
X133585856Y-93743937D01*
X133585856Y-93743937D02*
X133525380Y-93502032D01*
X133525380Y-93502032D02*
X133525380Y-93320603D01*
X133525380Y-93320603D02*
X133585856Y-93078699D01*
X133585856Y-93078699D02*
X133646333Y-92957746D01*
X133646333Y-92957746D02*
X133767285Y-92836794D01*
X133767285Y-92836794D02*
X133948714Y-92776318D01*
X133948714Y-92776318D02*
X134069666Y-92776318D01*
X134069666Y-92776318D02*
X134251095Y-92836794D01*
X134251095Y-92836794D02*
X134311571Y-92897270D01*
X135521095Y-94046318D02*
X134795380Y-94046318D01*
X135158237Y-94046318D02*
X135158237Y-92776318D01*
X135158237Y-92776318D02*
X135037285Y-92957746D01*
X135037285Y-92957746D02*
X134916333Y-93078699D01*
X134916333Y-93078699D02*
X134795380Y-93139175D01*
X136004904Y-92897270D02*
X136065380Y-92836794D01*
X136065380Y-92836794D02*
X136186333Y-92776318D01*
X136186333Y-92776318D02*
X136488714Y-92776318D01*
X136488714Y-92776318D02*
X136609666Y-92836794D01*
X136609666Y-92836794D02*
X136670142Y-92897270D01*
X136670142Y-92897270D02*
X136730619Y-93018222D01*
X136730619Y-93018222D02*
X136730619Y-93139175D01*
X136730619Y-93139175D02*
X136670142Y-93320603D01*
X136670142Y-93320603D02*
X135944428Y-94046318D01*
X135944428Y-94046318D02*
X136730619Y-94046318D01*
X137867571Y-93925365D02*
X137807095Y-93985842D01*
X137807095Y-93985842D02*
X137625666Y-94046318D01*
X137625666Y-94046318D02*
X137504714Y-94046318D01*
X137504714Y-94046318D02*
X137323285Y-93985842D01*
X137323285Y-93985842D02*
X137202333Y-93864889D01*
X137202333Y-93864889D02*
X137141856Y-93743937D01*
X137141856Y-93743937D02*
X137081380Y-93502032D01*
X137081380Y-93502032D02*
X137081380Y-93320603D01*
X137081380Y-93320603D02*
X137141856Y-93078699D01*
X137141856Y-93078699D02*
X137202333Y-92957746D01*
X137202333Y-92957746D02*
X137323285Y-92836794D01*
X137323285Y-92836794D02*
X137504714Y-92776318D01*
X137504714Y-92776318D02*
X137625666Y-92776318D01*
X137625666Y-92776318D02*
X137807095Y-92836794D01*
X137807095Y-92836794D02*
X137867571Y-92897270D01*
X139077095Y-94046318D02*
X138351380Y-94046318D01*
X138714237Y-94046318D02*
X138714237Y-92776318D01*
X138714237Y-92776318D02*
X138593285Y-92957746D01*
X138593285Y-92957746D02*
X138472333Y-93078699D01*
X138472333Y-93078699D02*
X138351380Y-93139175D01*
X140286619Y-94046318D02*
X139560904Y-94046318D01*
X139923761Y-94046318D02*
X139923761Y-92776318D01*
X139923761Y-92776318D02*
X139802809Y-92957746D01*
X139802809Y-92957746D02*
X139681857Y-93078699D01*
X139681857Y-93078699D02*
X139560904Y-93139175D01*
X138980333Y-76653365D02*
X138919857Y-76713842D01*
X138919857Y-76713842D02*
X138738428Y-76774318D01*
X138738428Y-76774318D02*
X138617476Y-76774318D01*
X138617476Y-76774318D02*
X138436047Y-76713842D01*
X138436047Y-76713842D02*
X138315095Y-76592889D01*
X138315095Y-76592889D02*
X138254618Y-76471937D01*
X138254618Y-76471937D02*
X138194142Y-76230032D01*
X138194142Y-76230032D02*
X138194142Y-76048603D01*
X138194142Y-76048603D02*
X138254618Y-75806699D01*
X138254618Y-75806699D02*
X138315095Y-75685746D01*
X138315095Y-75685746D02*
X138436047Y-75564794D01*
X138436047Y-75564794D02*
X138617476Y-75504318D01*
X138617476Y-75504318D02*
X138738428Y-75504318D01*
X138738428Y-75504318D02*
X138919857Y-75564794D01*
X138919857Y-75564794D02*
X138980333Y-75625270D01*
X140129380Y-75504318D02*
X139524618Y-75504318D01*
X139524618Y-75504318D02*
X139464142Y-76109080D01*
X139464142Y-76109080D02*
X139524618Y-76048603D01*
X139524618Y-76048603D02*
X139645571Y-75988127D01*
X139645571Y-75988127D02*
X139947952Y-75988127D01*
X139947952Y-75988127D02*
X140068904Y-76048603D01*
X140068904Y-76048603D02*
X140129380Y-76109080D01*
X140129380Y-76109080D02*
X140189857Y-76230032D01*
X140189857Y-76230032D02*
X140189857Y-76532413D01*
X140189857Y-76532413D02*
X140129380Y-76653365D01*
X140129380Y-76653365D02*
X140068904Y-76713842D01*
X140068904Y-76713842D02*
X139947952Y-76774318D01*
X139947952Y-76774318D02*
X139645571Y-76774318D01*
X139645571Y-76774318D02*
X139524618Y-76713842D01*
X139524618Y-76713842D02*
X139464142Y-76653365D01*
D13*
%TO.C,FB1*%
X140579375Y-115259250D02*
X140879375Y-115259250D01*
D14*
%TO.C,IC2*%
X158927375Y-71250250D02*
X158927375Y-72400250D01*
X158877375Y-72750250D02*
X158877375Y-73400250D01*
X155977375Y-72750250D02*
X158877375Y-72750250D01*
X158877375Y-73400250D02*
X155977375Y-73400250D01*
X155977375Y-73400250D02*
X155977375Y-72750250D01*
D15*
%TO.C,Y1*%
X134449375Y-106909250D02*
X134449375Y-106909250D01*
X134449375Y-107009250D02*
X134449375Y-107009250D01*
X133229375Y-107659250D02*
X133529375Y-107659250D01*
X133279375Y-110159250D02*
X133529375Y-110159250D01*
X134449375Y-107009250D02*
G75*
G03*
X134449375Y-106909250I0J50000D01*
G01*
X134449375Y-106909250D02*
G75*
G03*
X134449375Y-107009250I0J-50000D01*
G01*
D14*
%TO.C,C1*%
X128079375Y-82319250D02*
G75*
G03*
X128079375Y-82319250I-50000J0D01*
G01*
%TO.C,J4*%
X138076875Y-96209250D02*
X138076875Y-101289250D01*
X134896875Y-96209250D02*
X138076875Y-96209250D01*
X144786875Y-97479250D02*
X138076875Y-97479250D01*
D15*
X131156875Y-97479250D02*
X131156875Y-97479250D01*
X131056875Y-97479250D02*
X131056875Y-97479250D01*
D14*
X144786875Y-100019250D02*
X138076875Y-100019250D01*
X138076875Y-101289250D02*
X134896875Y-101289250D01*
X134896875Y-101289250D02*
X134896875Y-96209250D01*
D15*
X131056875Y-97479250D02*
G75*
G03*
X131156875Y-97479250I50000J0D01*
G01*
X131156875Y-97479250D02*
G75*
G03*
X131056875Y-97479250I-50000J0D01*
G01*
D16*
%TO.C,SW1*%
X159017375Y-80080250D02*
X146063375Y-80080250D01*
X146063375Y-80080250D02*
X146063375Y-86938250D01*
X159017375Y-86938250D02*
X159017375Y-80080250D01*
X146063375Y-86938250D02*
X159017375Y-86938250D01*
D14*
%TO.C,J3*%
X157593375Y-69369250D02*
G75*
G03*
X157593375Y-69369250I-100000J0D01*
G01*
D17*
X147923375Y-61609250D02*
X147923375Y-61849250D01*
X147923375Y-68039250D02*
X147923375Y-64089250D01*
X148573375Y-68039250D02*
X147923375Y-68039250D01*
X160063375Y-61609250D02*
X147923375Y-61609250D01*
X160063375Y-61609250D02*
X160063375Y-61849250D01*
X160063375Y-64089250D02*
X160063375Y-68039250D01*
X160063375Y-68039250D02*
X159413375Y-68039250D01*
D18*
%TO.C,J5*%
X117660875Y-85019250D02*
X105440875Y-85019250D01*
X108740875Y-85019250D02*
X108740875Y-97239250D01*
X106940875Y-85019250D02*
X108740875Y-85019250D01*
X105440875Y-85019250D02*
X105440875Y-97239250D01*
X105440875Y-87629250D02*
X105440875Y-89629250D01*
X106940875Y-87879250D02*
X105440875Y-87629250D01*
X118460875Y-88329250D02*
X118460875Y-88929250D01*
X117860875Y-88629250D02*
X118460875Y-88329250D01*
X118460875Y-88929250D02*
X117860875Y-88629250D01*
X106940875Y-89379250D02*
X106940875Y-87879250D01*
X105440875Y-89629250D02*
X106940875Y-89379250D01*
X105440875Y-92629250D02*
X105440875Y-94629250D01*
X106940875Y-92879250D02*
X105440875Y-92629250D01*
X106940875Y-94379250D02*
X106940875Y-92879250D01*
X105440875Y-94629250D02*
X106940875Y-94379250D01*
X117660875Y-97239250D02*
X117660875Y-85019250D01*
X108740875Y-97239250D02*
X106940875Y-97239250D01*
X106940875Y-97239250D02*
X106940875Y-85019250D01*
X105440875Y-97239250D02*
X117660875Y-97239250D01*
D14*
%TO.C,IC1*%
X148859375Y-94179250D02*
X168159375Y-94179250D01*
X148859375Y-113479250D02*
X148859375Y-94179250D01*
X168159375Y-94179250D02*
X168159375Y-113479250D01*
X168159375Y-113479250D02*
X148859375Y-113479250D01*
D10*
X147409375Y-94329250D02*
G75*
G03*
X147409375Y-94329250I-125000J0D01*
G01*
D15*
%TO.C,J2*%
X176545375Y-107939250D02*
X176545375Y-97363250D01*
X182385375Y-107939250D02*
X176545375Y-107939250D01*
X182385375Y-107939250D02*
X182385375Y-105042250D01*
X176545375Y-97363250D02*
X182385375Y-97363250D01*
X182385375Y-97363250D02*
X182385375Y-102651250D01*
D14*
%TO.C,R3*%
X141769375Y-104399250D02*
X141769375Y-105799250D01*
%TO.C,R10*%
X148653375Y-71483250D02*
G75*
G03*
X148653375Y-71483250I-50000J0D01*
G01*
D15*
%TO.C,J1*%
X172779375Y-86809250D02*
X162203375Y-86809250D01*
X172779375Y-80969250D02*
X172779375Y-86809250D01*
X172779375Y-80969250D02*
X169882375Y-80969250D01*
X162203375Y-86809250D02*
X162203375Y-80969250D01*
X162203375Y-80969250D02*
X167491375Y-80969250D01*
D14*
%TO.C,R9*%
X152463375Y-73908250D02*
G75*
G03*
X152463375Y-73908250I-50000J0D01*
G01*
%TD*%
M02*
