%TF.GenerationSoftware,KiCad,Pcbnew,7.0.7*%
%TF.CreationDate,2023-10-17T17:05:39-05:00*%
%TF.ProjectId,IGVC-CBV1,49475643-2d43-4425-9631-2e6b69636164,rev?*%
%TF.SameCoordinates,Original*%
%TF.FileFunction,Paste,Top*%
%TF.FilePolarity,Positive*%
%FSLAX46Y46*%
G04 Gerber Fmt 4.6, Leading zero omitted, Abs format (unit mm)*
G04 Created by KiCad (PCBNEW 7.0.7) date 2023-10-17 17:05:39*
%MOMM*%
%LPD*%
G01*
G04 APERTURE LIST*
%ADD10R,0.500000X0.400000*%
%ADD11R,1.470000X1.020000*%
%ADD12R,0.600000X1.150000*%
%ADD13R,1.300000X1.300000*%
%ADD14R,1.230000X1.800000*%
%ADD15R,0.650000X0.620000*%
%ADD16R,0.380000X0.415000*%
%ADD17R,0.300000X1.400000*%
%ADD18R,0.800000X1.400000*%
%ADD19R,0.620000X0.650000*%
%ADD20R,0.415000X0.380000*%
%ADD21R,0.600000X0.490000*%
%ADD22R,1.475000X0.300000*%
%ADD23R,0.300000X1.475000*%
%ADD24R,1.005599X0.949998*%
%ADD25R,1.000000X1.800000*%
%ADD26R,0.900000X0.650000*%
G04 APERTURE END LIST*
D10*
%TO.C,FB1*%
X140729375Y-115659250D03*
X140729375Y-114859250D03*
%TD*%
D11*
%TO.C,C15*%
X144539375Y-108559250D03*
X144539375Y-110179250D03*
%TD*%
D12*
%TO.C,IC2*%
X158377375Y-71825250D03*
X157427375Y-71825250D03*
X156477375Y-71825250D03*
X156477375Y-74325250D03*
X158377375Y-74325250D03*
%TD*%
D11*
%TO.C,C13*%
X131839375Y-90113250D03*
X131839375Y-91733250D03*
%TD*%
%TO.C,C4*%
X136919375Y-80969250D03*
X136919375Y-79349250D03*
%TD*%
D13*
%TO.C,Y1*%
X134379375Y-108059250D03*
X132279375Y-108059250D03*
X132279375Y-109759250D03*
X134379375Y-109759250D03*
%TD*%
D14*
%TO.C,C1*%
X128029375Y-80969250D03*
X128029375Y-78349250D03*
%TD*%
D11*
%TO.C,C6*%
X129045375Y-87065250D03*
X129045375Y-85445250D03*
%TD*%
D15*
%TO.C,C19*%
X140221375Y-108909250D03*
X139341375Y-108909250D03*
%TD*%
D16*
%TO.C,C24*%
X161000000Y-74473250D03*
X161000000Y-73857250D03*
%TD*%
D11*
%TO.C,C9*%
X137391375Y-87065250D03*
X137391375Y-85445250D03*
%TD*%
D17*
%TO.C,J3*%
X155743375Y-68069250D03*
X154743375Y-68069250D03*
X153243375Y-68069250D03*
X152243375Y-68069250D03*
D18*
X150493375Y-68069250D03*
X151493375Y-68069250D03*
D17*
X152743375Y-68069250D03*
X153743375Y-68069250D03*
X154243375Y-68069250D03*
X155243375Y-68069250D03*
D18*
X156493375Y-68069250D03*
X157493375Y-68069250D03*
%TD*%
D11*
%TO.C,C14*%
X129009375Y-90113250D03*
X129009375Y-91733250D03*
%TD*%
D19*
%TO.C,C20*%
X138189375Y-104659250D03*
X138189375Y-105539250D03*
%TD*%
D20*
%TO.C,C17*%
X141037375Y-111449250D03*
X140421375Y-111449250D03*
%TD*%
D11*
%TO.C,C10*%
X140221375Y-87065250D03*
X140221375Y-85445250D03*
%TD*%
%TO.C,C7*%
X131731375Y-87065250D03*
X131731375Y-85445250D03*
%TD*%
%TO.C,C8*%
X134561375Y-87065250D03*
X134561375Y-85445250D03*
%TD*%
D20*
%TO.C,C18*%
X141037375Y-117799250D03*
X140421375Y-117799250D03*
%TD*%
D21*
%TO.C,R1*%
X152413375Y-88134250D03*
X152413375Y-89044250D03*
%TD*%
D22*
%TO.C,IC1*%
X147771375Y-95079250D03*
X147771375Y-95579250D03*
X147771375Y-96079250D03*
X147771375Y-96579250D03*
X147771375Y-97079250D03*
X147771375Y-97579250D03*
X147771375Y-98079250D03*
X147771375Y-98579250D03*
X147771375Y-99079250D03*
X147771375Y-99579250D03*
X147771375Y-100079250D03*
X147771375Y-100579250D03*
X147771375Y-101079250D03*
X147771375Y-101579250D03*
X147771375Y-102079250D03*
X147771375Y-102579250D03*
X147771375Y-103079250D03*
X147771375Y-103579250D03*
X147771375Y-104079250D03*
X147771375Y-104579250D03*
X147771375Y-105079250D03*
X147771375Y-105579250D03*
X147771375Y-106079250D03*
X147771375Y-106579250D03*
X147771375Y-107079250D03*
X147771375Y-107579250D03*
X147771375Y-108079250D03*
X147771375Y-108579250D03*
X147771375Y-109079250D03*
X147771375Y-109579250D03*
X147771375Y-110079250D03*
X147771375Y-110579250D03*
X147771375Y-111079250D03*
X147771375Y-111579250D03*
X147771375Y-112079250D03*
X147771375Y-112579250D03*
D23*
X149759375Y-114567250D03*
X150259375Y-114567250D03*
X150759375Y-114567250D03*
X151259375Y-114567250D03*
X151759375Y-114567250D03*
X152259375Y-114567250D03*
X152759375Y-114567250D03*
X153259375Y-114567250D03*
X153759375Y-114567250D03*
X154259375Y-114567250D03*
X154759375Y-114567250D03*
X155259375Y-114567250D03*
X155759375Y-114567250D03*
X156259375Y-114567250D03*
X156759375Y-114567250D03*
X157259375Y-114567250D03*
X157759375Y-114567250D03*
X158259375Y-114567250D03*
X158759375Y-114567250D03*
X159259375Y-114567250D03*
X159759375Y-114567250D03*
X160259375Y-114567250D03*
X160759375Y-114567250D03*
X161259375Y-114567250D03*
X161759375Y-114567250D03*
X162259375Y-114567250D03*
X162759375Y-114567250D03*
X163259375Y-114567250D03*
X163759375Y-114567250D03*
X164259375Y-114567250D03*
X164759375Y-114567250D03*
X165259375Y-114567250D03*
X165759375Y-114567250D03*
X166259375Y-114567250D03*
X166759375Y-114567250D03*
X167259375Y-114567250D03*
D22*
X169247375Y-112579250D03*
X169247375Y-112079250D03*
X169247375Y-111579250D03*
X169247375Y-111079250D03*
X169247375Y-110579250D03*
X169247375Y-110079250D03*
X169247375Y-109579250D03*
X169247375Y-109079250D03*
X169247375Y-108579250D03*
X169247375Y-108079250D03*
X169247375Y-107579250D03*
X169247375Y-107079250D03*
X169247375Y-106579250D03*
X169247375Y-106079250D03*
X169247375Y-105579250D03*
X169247375Y-105079250D03*
X169247375Y-104579250D03*
X169247375Y-104079250D03*
X169247375Y-103579250D03*
X169247375Y-103079250D03*
X169247375Y-102579250D03*
X169247375Y-102079250D03*
X169247375Y-101579250D03*
X169247375Y-101079250D03*
X169247375Y-100579250D03*
X169247375Y-100079250D03*
X169247375Y-99579250D03*
X169247375Y-99079250D03*
X169247375Y-98579250D03*
X169247375Y-98079250D03*
X169247375Y-97579250D03*
X169247375Y-97079250D03*
X169247375Y-96579250D03*
X169247375Y-96079250D03*
X169247375Y-95579250D03*
X169247375Y-95079250D03*
D23*
X167259375Y-93091250D03*
X166759375Y-93091250D03*
X166259375Y-93091250D03*
X165759375Y-93091250D03*
X165259375Y-93091250D03*
X164759375Y-93091250D03*
X164259375Y-93091250D03*
X163759375Y-93091250D03*
X163259375Y-93091250D03*
X162759375Y-93091250D03*
X162259375Y-93091250D03*
X161759375Y-93091250D03*
X161259375Y-93091250D03*
X160759375Y-93091250D03*
X160259375Y-93091250D03*
X159759375Y-93091250D03*
X159259375Y-93091250D03*
X158759375Y-93091250D03*
X158259375Y-93091250D03*
X157759375Y-93091250D03*
X157259375Y-93091250D03*
X156759375Y-93091250D03*
X156259375Y-93091250D03*
X155759375Y-93091250D03*
X155259375Y-93091250D03*
X154759375Y-93091250D03*
X154259375Y-93091250D03*
X153759375Y-93091250D03*
X153259375Y-93091250D03*
X152759375Y-93091250D03*
X152259375Y-93091250D03*
X151759375Y-93091250D03*
X151259375Y-93091250D03*
X150759375Y-93091250D03*
X150259375Y-93091250D03*
X149759375Y-93091250D03*
%TD*%
D11*
%TO.C,C3*%
X134089375Y-80969250D03*
X134089375Y-79349250D03*
%TD*%
D24*
%TO.C,C16*%
X140914973Y-112719250D03*
X139459375Y-112719250D03*
%TD*%
D25*
%TO.C,R3*%
X140269375Y-105099250D03*
X143269375Y-105099250D03*
%TD*%
D26*
%TO.C,R10*%
X148603375Y-72333250D03*
X148603375Y-73783250D03*
%TD*%
D16*
%TO.C,C23*%
X154953375Y-77521250D03*
X154953375Y-76905250D03*
%TD*%
D11*
%TO.C,C2*%
X131259375Y-80969250D03*
X131259375Y-79349250D03*
%TD*%
D26*
%TO.C,R9*%
X152413375Y-73058250D03*
X152413375Y-71608250D03*
%TD*%
D11*
%TO.C,C12*%
X134669375Y-90113250D03*
X134669375Y-91733250D03*
%TD*%
%TO.C,C11*%
X137173375Y-90017250D03*
X137173375Y-91637250D03*
%TD*%
%TO.C,C5*%
X139749375Y-80969250D03*
X139749375Y-79349250D03*
%TD*%
M02*
