%TF.GenerationSoftware,KiCad,Pcbnew,7.0.7*%
%TF.CreationDate,2023-10-17T17:05:39-05:00*%
%TF.ProjectId,IGVC-CBV1,49475643-2d43-4425-9631-2e6b69636164,rev?*%
%TF.SameCoordinates,Original*%
%TF.FileFunction,Copper,L1,Top*%
%TF.FilePolarity,Positive*%
%FSLAX46Y46*%
G04 Gerber Fmt 4.6, Leading zero omitted, Abs format (unit mm)*
G04 Created by KiCad (PCBNEW 7.0.7) date 2023-10-17 17:05:39*
%MOMM*%
%LPD*%
G01*
G04 APERTURE LIST*
G04 Aperture macros list*
%AMRoundRect*
0 Rectangle with rounded corners*
0 $1 Rounding radius*
0 $2 $3 $4 $5 $6 $7 $8 $9 X,Y pos of 4 corners*
0 Add a 4 corners polygon primitive as box body*
4,1,4,$2,$3,$4,$5,$6,$7,$8,$9,$2,$3,0*
0 Add four circle primitives for the rounded corners*
1,1,$1+$1,$2,$3*
1,1,$1+$1,$4,$5*
1,1,$1+$1,$6,$7*
1,1,$1+$1,$8,$9*
0 Add four rect primitives between the rounded corners*
20,1,$1+$1,$2,$3,$4,$5,0*
20,1,$1+$1,$4,$5,$6,$7,0*
20,1,$1+$1,$6,$7,$8,$9,0*
20,1,$1+$1,$8,$9,$2,$3,0*%
G04 Aperture macros list end*
%TA.AperFunction,SMDPad,CuDef*%
%ADD10R,0.500000X0.400000*%
%TD*%
%TA.AperFunction,SMDPad,CuDef*%
%ADD11R,1.470000X1.020000*%
%TD*%
%TA.AperFunction,SMDPad,CuDef*%
%ADD12R,0.600000X1.150000*%
%TD*%
%TA.AperFunction,SMDPad,CuDef*%
%ADD13R,1.300000X1.300000*%
%TD*%
%TA.AperFunction,SMDPad,CuDef*%
%ADD14R,1.230000X1.800000*%
%TD*%
%TA.AperFunction,ComponentPad*%
%ADD15R,1.530000X1.530000*%
%TD*%
%TA.AperFunction,ComponentPad*%
%ADD16C,1.530000*%
%TD*%
%TA.AperFunction,SMDPad,CuDef*%
%ADD17R,0.650000X0.620000*%
%TD*%
%TA.AperFunction,SMDPad,CuDef*%
%ADD18R,0.380000X0.415000*%
%TD*%
%TA.AperFunction,ComponentPad*%
%ADD19R,2.794000X2.794000*%
%TD*%
%TA.AperFunction,ComponentPad*%
%ADD20C,2.794000*%
%TD*%
%TA.AperFunction,ComponentPad*%
%ADD21O,0.900000X1.300000*%
%TD*%
%TA.AperFunction,ComponentPad*%
%ADD22O,0.900000X1.600000*%
%TD*%
%TA.AperFunction,SMDPad,CuDef*%
%ADD23R,0.300000X1.400000*%
%TD*%
%TA.AperFunction,SMDPad,CuDef*%
%ADD24R,0.800000X1.400000*%
%TD*%
%TA.AperFunction,SMDPad,CuDef*%
%ADD25R,0.620000X0.650000*%
%TD*%
%TA.AperFunction,ComponentPad*%
%ADD26RoundRect,0.250000X-1.550000X0.750000X-1.550000X-0.750000X1.550000X-0.750000X1.550000X0.750000X0*%
%TD*%
%TA.AperFunction,ComponentPad*%
%ADD27O,3.600000X2.000000*%
%TD*%
%TA.AperFunction,SMDPad,CuDef*%
%ADD28R,0.415000X0.380000*%
%TD*%
%TA.AperFunction,SMDPad,CuDef*%
%ADD29R,0.600000X0.490000*%
%TD*%
%TA.AperFunction,SMDPad,CuDef*%
%ADD30R,1.475000X0.300000*%
%TD*%
%TA.AperFunction,SMDPad,CuDef*%
%ADD31R,0.300000X1.475000*%
%TD*%
%TA.AperFunction,SMDPad,CuDef*%
%ADD32R,1.005599X0.949998*%
%TD*%
%TA.AperFunction,ComponentPad*%
%ADD33C,1.550000*%
%TD*%
%TA.AperFunction,SMDPad,CuDef*%
%ADD34R,1.000000X1.800000*%
%TD*%
%TA.AperFunction,SMDPad,CuDef*%
%ADD35R,0.900000X0.650000*%
%TD*%
%TA.AperFunction,ViaPad*%
%ADD36C,0.800000*%
%TD*%
%TA.AperFunction,Conductor*%
%ADD37C,0.700000*%
%TD*%
%TA.AperFunction,Conductor*%
%ADD38C,0.600000*%
%TD*%
%TA.AperFunction,Conductor*%
%ADD39C,0.800000*%
%TD*%
%TA.AperFunction,Conductor*%
%ADD40C,0.200000*%
%TD*%
%TA.AperFunction,Conductor*%
%ADD41C,0.400000*%
%TD*%
G04 APERTURE END LIST*
D10*
%TO.P,FB1,1*%
%TO.N,+3.3V*%
X140729375Y-115659250D03*
%TO.P,FB1,2*%
X140729375Y-114859250D03*
%TD*%
D11*
%TO.P,C15,1*%
%TO.N,/NRST*%
X144539375Y-108559250D03*
%TO.P,C15,2*%
%TO.N,GND*%
X144539375Y-110179250D03*
%TD*%
D12*
%TO.P,IC2,1,VIN*%
%TO.N,VBUS*%
X158377375Y-71825250D03*
%TO.P,IC2,2,GND*%
%TO.N,GND*%
X157427375Y-71825250D03*
%TO.P,IC2,3,EN*%
%TO.N,VBUS*%
X156477375Y-71825250D03*
%TO.P,IC2,4,ADJ/BYP*%
%TO.N,Net-(IC2-ADJ{slash}BYP)*%
X156477375Y-74325250D03*
%TO.P,IC2,5,VOUT*%
%TO.N,+3.3V*%
X158377375Y-74325250D03*
%TD*%
D11*
%TO.P,C13,1*%
%TO.N,+3.3V*%
X131839375Y-90113250D03*
%TO.P,C13,2*%
%TO.N,GND*%
X131839375Y-91733250D03*
%TD*%
%TO.P,C4,1*%
%TO.N,+3.3V*%
X136919375Y-80969250D03*
%TO.P,C4,2*%
%TO.N,GND*%
X136919375Y-79349250D03*
%TD*%
D13*
%TO.P,Y1,1,CRYSTAL_1*%
%TO.N,Net-(Y1-CRYSTAL_1)*%
X134379375Y-108059250D03*
%TO.P,Y1,2,COVER/GROUND*%
%TO.N,GND*%
X132279375Y-108059250D03*
%TO.P,Y1,3,CRYSTAL_2*%
%TO.N,RCC_OSC_OUT*%
X132279375Y-109759250D03*
%TO.P,Y1,4,NO_CONNECT*%
%TO.N,unconnected-(Y1-NO_CONNECT-Pad4)*%
X134379375Y-109759250D03*
%TD*%
D14*
%TO.P,C1,1*%
%TO.N,+3.3V*%
X128029375Y-80969250D03*
%TO.P,C1,2*%
%TO.N,GND*%
X128029375Y-78349250D03*
%TD*%
D15*
%TO.P,J4,1,Pin_1*%
%TO.N,I2C2_SDA*%
X132356875Y-97479250D03*
D16*
%TO.P,J4,2,Pin_2*%
%TO.N,I2C2_SCL*%
X132356875Y-100019250D03*
%TD*%
D11*
%TO.P,C6,1*%
%TO.N,+3.3V*%
X129045375Y-87065250D03*
%TO.P,C6,2*%
%TO.N,GND*%
X129045375Y-85445250D03*
%TD*%
D17*
%TO.P,C19,1*%
%TO.N,GND*%
X140221375Y-108909250D03*
%TO.P,C19,2*%
%TO.N,RCC_OSC_OUT*%
X139341375Y-108909250D03*
%TD*%
D18*
%TO.P,C24,1*%
%TO.N,+3.3V*%
X161000000Y-74473250D03*
%TO.P,C24,2*%
%TO.N,GND*%
X161000000Y-73857250D03*
%TD*%
D11*
%TO.P,C9,1*%
%TO.N,+3.3V*%
X137391375Y-87065250D03*
%TO.P,C9,2*%
%TO.N,GND*%
X137391375Y-85445250D03*
%TD*%
D19*
%TO.P,SW1,1,A*%
%TO.N,GND*%
X157239375Y-83509250D03*
D20*
%TO.P,SW1,2,B*%
%TO.N,/SW_BOOT0*%
X152540375Y-83509250D03*
%TO.P,SW1,3,C*%
%TO.N,+3.3V*%
X147841375Y-83509250D03*
%TD*%
D21*
%TO.P,J3,S4,SHELL_GND*%
%TO.N,GND*%
X149343375Y-67289250D03*
%TO.P,J3,S3,SHELL_GND*%
X158643375Y-67289250D03*
D22*
%TO.P,J3,S2,SHELL_GND*%
X148073375Y-62969250D03*
%TO.P,J3,S1,SHELL_GND*%
X159913375Y-62969250D03*
D23*
%TO.P,J3,B8,SBU2*%
%TO.N,unconnected-(J3-SBU2-PadB8)*%
X155743375Y-68069250D03*
%TO.P,J3,B7,D2-*%
%TO.N,unconnected-(J3-D2--PadB7)*%
X154743375Y-68069250D03*
%TO.P,J3,B6,D2+*%
%TO.N,unconnected-(J3-D2+-PadB6)*%
X153243375Y-68069250D03*
%TO.P,J3,B5,CC2*%
%TO.N,Net-(J3-CC2)*%
X152243375Y-68069250D03*
D24*
%TO.P,J3,A12_B1,GND*%
%TO.N,GND*%
X150493375Y-68069250D03*
%TO.P,J3,A9_B4,VBUS*%
%TO.N,VBUS*%
X151493375Y-68069250D03*
D23*
%TO.P,J3,A8,SBU1*%
%TO.N,unconnected-(J3-SBU1-PadA8)*%
X152743375Y-68069250D03*
%TO.P,J3,A7,D1-*%
%TO.N,unconnected-(J3-D1--PadA7)*%
X153743375Y-68069250D03*
%TO.P,J3,A6,D1+*%
%TO.N,unconnected-(J3-D1+-PadA6)*%
X154243375Y-68069250D03*
%TO.P,J3,A5,CC1*%
%TO.N,Net-(J3-CC1)*%
X155243375Y-68069250D03*
D24*
%TO.P,J3,A4_B9,VBUS*%
%TO.N,VBUS*%
X156493375Y-68069250D03*
%TO.P,J3,A1_B12,GND*%
%TO.N,GND*%
X157493375Y-68069250D03*
%TD*%
D11*
%TO.P,C14,1*%
%TO.N,+3.3V*%
X129009375Y-90113250D03*
%TO.P,C14,2*%
%TO.N,GND*%
X129009375Y-91733250D03*
%TD*%
D25*
%TO.P,C20,1*%
%TO.N,GND*%
X138189375Y-104659250D03*
%TO.P,C20,2*%
%TO.N,Net-(Y1-CRYSTAL_1)*%
X138189375Y-105539250D03*
%TD*%
D26*
%TO.P,J5,1,Pin_1*%
%TO.N,+3.3V*%
X115550875Y-88629250D03*
D27*
%TO.P,J5,2,Pin_2*%
%TO.N,GND*%
X115550875Y-93629250D03*
%TD*%
D28*
%TO.P,C17,1*%
%TO.N,+3.3V*%
X141037375Y-111449250D03*
%TO.P,C17,2*%
%TO.N,GND*%
X140421375Y-111449250D03*
%TD*%
D11*
%TO.P,C10,1*%
%TO.N,+3.3V*%
X140221375Y-87065250D03*
%TO.P,C10,2*%
%TO.N,GND*%
X140221375Y-85445250D03*
%TD*%
%TO.P,C7,1*%
%TO.N,+3.3V*%
X131731375Y-87065250D03*
%TO.P,C7,2*%
%TO.N,GND*%
X131731375Y-85445250D03*
%TD*%
%TO.P,C8,1*%
%TO.N,+3.3V*%
X134561375Y-87065250D03*
%TO.P,C8,2*%
%TO.N,GND*%
X134561375Y-85445250D03*
%TD*%
D28*
%TO.P,C18,1*%
%TO.N,+3.3V*%
X141037375Y-117799250D03*
%TO.P,C18,2*%
%TO.N,GND*%
X140421375Y-117799250D03*
%TD*%
D29*
%TO.P,R1,1*%
%TO.N,/SW_BOOT0*%
X152413375Y-88134250D03*
%TO.P,R1,2*%
%TO.N,/BOOT0*%
X152413375Y-89044250D03*
%TD*%
D30*
%TO.P,IC1,1,PE2*%
%TO.N,unconnected-(IC1-PE2-Pad1)*%
X147771375Y-95079250D03*
%TO.P,IC1,2,PE3*%
%TO.N,unconnected-(IC1-PE3-Pad2)*%
X147771375Y-95579250D03*
%TO.P,IC1,3,PE4*%
%TO.N,unconnected-(IC1-PE4-Pad3)*%
X147771375Y-96079250D03*
%TO.P,IC1,4,PE5*%
%TO.N,unconnected-(IC1-PE5-Pad4)*%
X147771375Y-96579250D03*
%TO.P,IC1,5,PE6*%
%TO.N,unconnected-(IC1-PE6-Pad5)*%
X147771375Y-97079250D03*
%TO.P,IC1,6,VBAT*%
%TO.N,+3.3V*%
X147771375Y-97579250D03*
%TO.P,IC1,7,PC13*%
%TO.N,unconnected-(IC1-PC13-Pad7)*%
X147771375Y-98079250D03*
%TO.P,IC1,8,PC14*%
%TO.N,unconnected-(IC1-PC14-Pad8)*%
X147771375Y-98579250D03*
%TO.P,IC1,9,PC15*%
%TO.N,unconnected-(IC1-PC15-Pad9)*%
X147771375Y-99079250D03*
%TO.P,IC1,10,PF0*%
%TO.N,I2C2_SDA*%
X147771375Y-99579250D03*
%TO.P,IC1,11,PF1*%
%TO.N,I2C2_SCL*%
X147771375Y-100079250D03*
%TO.P,IC1,12,PF2*%
%TO.N,unconnected-(IC1-PF2-Pad12)*%
X147771375Y-100579250D03*
%TO.P,IC1,13,PF3*%
%TO.N,unconnected-(IC1-PF3-Pad13)*%
X147771375Y-101079250D03*
%TO.P,IC1,14,PF4*%
%TO.N,unconnected-(IC1-PF4-Pad14)*%
X147771375Y-101579250D03*
%TO.P,IC1,15,PF5*%
%TO.N,unconnected-(IC1-PF5-Pad15)*%
X147771375Y-102079250D03*
%TO.P,IC1,16,VSS_1*%
%TO.N,GND*%
X147771375Y-102579250D03*
%TO.P,IC1,17,VDD_1*%
%TO.N,+3.3V*%
X147771375Y-103079250D03*
%TO.P,IC1,18,PF6*%
%TO.N,unconnected-(IC1-PF6-Pad18)*%
X147771375Y-103579250D03*
%TO.P,IC1,19,PF7*%
%TO.N,unconnected-(IC1-PF7-Pad19)*%
X147771375Y-104079250D03*
%TO.P,IC1,20,PF8*%
%TO.N,unconnected-(IC1-PF8-Pad20)*%
X147771375Y-104579250D03*
%TO.P,IC1,21,PF9*%
%TO.N,unconnected-(IC1-PF9-Pad21)*%
X147771375Y-105079250D03*
%TO.P,IC1,22,PF10*%
%TO.N,unconnected-(IC1-PF10-Pad22)*%
X147771375Y-105579250D03*
%TO.P,IC1,23,PH0*%
%TO.N,RCC_OSC_IN*%
X147771375Y-106079250D03*
%TO.P,IC1,24,PH1*%
%TO.N,RCC_OSC_OUT*%
X147771375Y-106579250D03*
%TO.P,IC1,25,NRST*%
%TO.N,/NRST*%
X147771375Y-107079250D03*
%TO.P,IC1,26,PC0*%
%TO.N,unconnected-(IC1-PC0-Pad26)*%
X147771375Y-107579250D03*
%TO.P,IC1,27,PC1*%
%TO.N,unconnected-(IC1-PC1-Pad27)*%
X147771375Y-108079250D03*
%TO.P,IC1,28,PC2*%
%TO.N,unconnected-(IC1-PC2-Pad28)*%
X147771375Y-108579250D03*
%TO.P,IC1,29,PC3*%
%TO.N,unconnected-(IC1-PC3-Pad29)*%
X147771375Y-109079250D03*
%TO.P,IC1,30,VDD_2*%
%TO.N,+3.3V*%
X147771375Y-109579250D03*
%TO.P,IC1,31,VSSA*%
%TO.N,GND*%
X147771375Y-110079250D03*
%TO.P,IC1,32,VREF+*%
%TO.N,unconnected-(IC1-VREF+-Pad32)*%
X147771375Y-110579250D03*
%TO.P,IC1,33,VDDA*%
%TO.N,+3.3V*%
X147771375Y-111079250D03*
%TO.P,IC1,34,PA0*%
%TO.N,unconnected-(IC1-PA0-Pad34)*%
X147771375Y-111579250D03*
%TO.P,IC1,35,PA1*%
%TO.N,unconnected-(IC1-PA1-Pad35)*%
X147771375Y-112079250D03*
%TO.P,IC1,36,PA2*%
%TO.N,unconnected-(IC1-PA2-Pad36)*%
X147771375Y-112579250D03*
D31*
%TO.P,IC1,37,PA3*%
%TO.N,unconnected-(IC1-PA3-Pad37)*%
X149759375Y-114567250D03*
%TO.P,IC1,38,VSS_2*%
%TO.N,GND*%
X150259375Y-114567250D03*
%TO.P,IC1,39,VDD_3*%
%TO.N,+3.3V*%
X150759375Y-114567250D03*
%TO.P,IC1,40,PA4*%
%TO.N,unconnected-(IC1-PA4-Pad40)*%
X151259375Y-114567250D03*
%TO.P,IC1,41,PA5*%
%TO.N,unconnected-(IC1-PA5-Pad41)*%
X151759375Y-114567250D03*
%TO.P,IC1,42,PA6*%
%TO.N,unconnected-(IC1-PA6-Pad42)*%
X152259375Y-114567250D03*
%TO.P,IC1,43,PA7*%
%TO.N,unconnected-(IC1-PA7-Pad43)*%
X152759375Y-114567250D03*
%TO.P,IC1,44,PC4*%
%TO.N,unconnected-(IC1-PC4-Pad44)*%
X153259375Y-114567250D03*
%TO.P,IC1,45,PC5*%
%TO.N,unconnected-(IC1-PC5-Pad45)*%
X153759375Y-114567250D03*
%TO.P,IC1,46,PB0*%
%TO.N,unconnected-(IC1-PB0-Pad46)*%
X154259375Y-114567250D03*
%TO.P,IC1,47,PB1*%
%TO.N,unconnected-(IC1-PB1-Pad47)*%
X154759375Y-114567250D03*
%TO.P,IC1,48,PB2*%
%TO.N,unconnected-(IC1-PB2-Pad48)*%
X155259375Y-114567250D03*
%TO.P,IC1,49,PF11*%
%TO.N,unconnected-(IC1-PF11-Pad49)*%
X155759375Y-114567250D03*
%TO.P,IC1,50,PF12*%
%TO.N,unconnected-(IC1-PF12-Pad50)*%
X156259375Y-114567250D03*
%TO.P,IC1,51,VSS_3*%
%TO.N,GND*%
X156759375Y-114567250D03*
%TO.P,IC1,52,VDD_4*%
%TO.N,+3.3V*%
X157259375Y-114567250D03*
%TO.P,IC1,53,PF13*%
%TO.N,unconnected-(IC1-PF13-Pad53)*%
X157759375Y-114567250D03*
%TO.P,IC1,54,PF14*%
%TO.N,unconnected-(IC1-PF14-Pad54)*%
X158259375Y-114567250D03*
%TO.P,IC1,55,PF15*%
%TO.N,unconnected-(IC1-PF15-Pad55)*%
X158759375Y-114567250D03*
%TO.P,IC1,56,PG0*%
%TO.N,unconnected-(IC1-PG0-Pad56)*%
X159259375Y-114567250D03*
%TO.P,IC1,57,PG1*%
%TO.N,unconnected-(IC1-PG1-Pad57)*%
X159759375Y-114567250D03*
%TO.P,IC1,58,PE7*%
%TO.N,unconnected-(IC1-PE7-Pad58)*%
X160259375Y-114567250D03*
%TO.P,IC1,59,PE8*%
%TO.N,unconnected-(IC1-PE8-Pad59)*%
X160759375Y-114567250D03*
%TO.P,IC1,60,PE9*%
%TO.N,unconnected-(IC1-PE9-Pad60)*%
X161259375Y-114567250D03*
%TO.P,IC1,61,VSS_4*%
%TO.N,GND*%
X161759375Y-114567250D03*
%TO.P,IC1,62,VDD_5*%
%TO.N,+3.3V*%
X162259375Y-114567250D03*
%TO.P,IC1,63,PE10*%
%TO.N,unconnected-(IC1-PE10-Pad63)*%
X162759375Y-114567250D03*
%TO.P,IC1,64,PE11*%
%TO.N,unconnected-(IC1-PE11-Pad64)*%
X163259375Y-114567250D03*
%TO.P,IC1,65,PE12*%
%TO.N,unconnected-(IC1-PE12-Pad65)*%
X163759375Y-114567250D03*
%TO.P,IC1,66,PE13*%
%TO.N,unconnected-(IC1-PE13-Pad66)*%
X164259375Y-114567250D03*
%TO.P,IC1,67,PE14*%
%TO.N,unconnected-(IC1-PE14-Pad67)*%
X164759375Y-114567250D03*
%TO.P,IC1,68,PE15*%
%TO.N,unconnected-(IC1-PE15-Pad68)*%
X165259375Y-114567250D03*
%TO.P,IC1,69,PB10*%
%TO.N,unconnected-(IC1-PB10-Pad69)*%
X165759375Y-114567250D03*
%TO.P,IC1,70,PB11*%
%TO.N,unconnected-(IC1-PB11-Pad70)*%
X166259375Y-114567250D03*
%TO.P,IC1,71,VCAP_1*%
%TO.N,unconnected-(IC1-VCAP_1-Pad71)*%
X166759375Y-114567250D03*
%TO.P,IC1,72,VDD_6*%
%TO.N,+3.3V*%
X167259375Y-114567250D03*
D30*
%TO.P,IC1,73,PB12*%
%TO.N,unconnected-(IC1-PB12-Pad73)*%
X169247375Y-112579250D03*
%TO.P,IC1,74,PB13*%
%TO.N,unconnected-(IC1-PB13-Pad74)*%
X169247375Y-112079250D03*
%TO.P,IC1,75,PB14*%
%TO.N,unconnected-(IC1-PB14-Pad75)*%
X169247375Y-111579250D03*
%TO.P,IC1,76,PB15*%
%TO.N,unconnected-(IC1-PB15-Pad76)*%
X169247375Y-111079250D03*
%TO.P,IC1,77,PD8*%
%TO.N,unconnected-(IC1-PD8-Pad77)*%
X169247375Y-110579250D03*
%TO.P,IC1,78,PD9*%
%TO.N,unconnected-(IC1-PD9-Pad78)*%
X169247375Y-110079250D03*
%TO.P,IC1,79,PD10*%
%TO.N,unconnected-(IC1-PD10-Pad79)*%
X169247375Y-109579250D03*
%TO.P,IC1,80,PD11*%
%TO.N,unconnected-(IC1-PD11-Pad80)*%
X169247375Y-109079250D03*
%TO.P,IC1,81,PD12*%
%TO.N,unconnected-(IC1-PD12-Pad81)*%
X169247375Y-108579250D03*
%TO.P,IC1,82,PD13*%
%TO.N,unconnected-(IC1-PD13-Pad82)*%
X169247375Y-108079250D03*
%TO.P,IC1,83,VSS_5*%
%TO.N,GND*%
X169247375Y-107579250D03*
%TO.P,IC1,84,VDD_7*%
%TO.N,+3.3V*%
X169247375Y-107079250D03*
%TO.P,IC1,85,PD14*%
%TO.N,unconnected-(IC1-PD14-Pad85)*%
X169247375Y-106579250D03*
%TO.P,IC1,86,PD15*%
%TO.N,unconnected-(IC1-PD15-Pad86)*%
X169247375Y-106079250D03*
%TO.P,IC1,87,PG2*%
%TO.N,unconnected-(IC1-PG2-Pad87)*%
X169247375Y-105579250D03*
%TO.P,IC1,88,PG3*%
%TO.N,unconnected-(IC1-PG3-Pad88)*%
X169247375Y-105079250D03*
%TO.P,IC1,89,PG4*%
%TO.N,unconnected-(IC1-PG4-Pad89)*%
X169247375Y-104579250D03*
%TO.P,IC1,90,PG5*%
%TO.N,unconnected-(IC1-PG5-Pad90)*%
X169247375Y-104079250D03*
%TO.P,IC1,91,PG6*%
%TO.N,unconnected-(IC1-PG6-Pad91)*%
X169247375Y-103579250D03*
%TO.P,IC1,92,PG7*%
%TO.N,unconnected-(IC1-PG7-Pad92)*%
X169247375Y-103079250D03*
%TO.P,IC1,93,PG8*%
%TO.N,unconnected-(IC1-PG8-Pad93)*%
X169247375Y-102579250D03*
%TO.P,IC1,94,VSS_6*%
%TO.N,GND*%
X169247375Y-102079250D03*
%TO.P,IC1,95,VDD_8*%
%TO.N,+3.3V*%
X169247375Y-101579250D03*
%TO.P,IC1,96,PC6*%
%TO.N,unconnected-(IC1-PC6-Pad96)*%
X169247375Y-101079250D03*
%TO.P,IC1,97,PC7*%
%TO.N,unconnected-(IC1-PC7-Pad97)*%
X169247375Y-100579250D03*
%TO.P,IC1,98,PC8*%
%TO.N,unconnected-(IC1-PC8-Pad98)*%
X169247375Y-100079250D03*
%TO.P,IC1,99,PC9*%
%TO.N,unconnected-(IC1-PC9-Pad99)*%
X169247375Y-99579250D03*
%TO.P,IC1,100,PA8*%
%TO.N,unconnected-(IC1-PA8-Pad100)*%
X169247375Y-99079250D03*
%TO.P,IC1,101,PA9*%
%TO.N,USART1_TX*%
X169247375Y-98579250D03*
%TO.P,IC1,102,PA10*%
%TO.N,USART1_RX*%
X169247375Y-98079250D03*
%TO.P,IC1,103,PA11*%
%TO.N,unconnected-(IC1-PA11-Pad103)*%
X169247375Y-97579250D03*
%TO.P,IC1,104,PA12*%
%TO.N,unconnected-(IC1-PA12-Pad104)*%
X169247375Y-97079250D03*
%TO.P,IC1,105,PA13*%
%TO.N,SWDIO*%
X169247375Y-96579250D03*
%TO.P,IC1,106,VCAP_2*%
%TO.N,unconnected-(IC1-VCAP_2-Pad106)*%
X169247375Y-96079250D03*
%TO.P,IC1,107,VSS_7*%
%TO.N,GND*%
X169247375Y-95579250D03*
%TO.P,IC1,108,VDD_9*%
%TO.N,+3.3V*%
X169247375Y-95079250D03*
D31*
%TO.P,IC1,109,PA14*%
%TO.N,SWCLK*%
X167259375Y-93091250D03*
%TO.P,IC1,110,PA15*%
%TO.N,unconnected-(IC1-PA15-Pad110)*%
X166759375Y-93091250D03*
%TO.P,IC1,111,PC10*%
%TO.N,unconnected-(IC1-PC10-Pad111)*%
X166259375Y-93091250D03*
%TO.P,IC1,112,PC11*%
%TO.N,unconnected-(IC1-PC11-Pad112)*%
X165759375Y-93091250D03*
%TO.P,IC1,113,PC12*%
%TO.N,unconnected-(IC1-PC12-Pad113)*%
X165259375Y-93091250D03*
%TO.P,IC1,114,PD0*%
%TO.N,unconnected-(IC1-PD0-Pad114)*%
X164759375Y-93091250D03*
%TO.P,IC1,115,PD1*%
%TO.N,unconnected-(IC1-PD1-Pad115)*%
X164259375Y-93091250D03*
%TO.P,IC1,116,PD2*%
%TO.N,unconnected-(IC1-PD2-Pad116)*%
X163759375Y-93091250D03*
%TO.P,IC1,117,PD3*%
%TO.N,unconnected-(IC1-PD3-Pad117)*%
X163259375Y-93091250D03*
%TO.P,IC1,118,PD4*%
%TO.N,unconnected-(IC1-PD4-Pad118)*%
X162759375Y-93091250D03*
%TO.P,IC1,119,PD5*%
%TO.N,unconnected-(IC1-PD5-Pad119)*%
X162259375Y-93091250D03*
%TO.P,IC1,120,VSS_8*%
%TO.N,GND*%
X161759375Y-93091250D03*
%TO.P,IC1,121,VDD_10*%
%TO.N,+3.3V*%
X161259375Y-93091250D03*
%TO.P,IC1,122,PD6*%
%TO.N,unconnected-(IC1-PD6-Pad122)*%
X160759375Y-93091250D03*
%TO.P,IC1,123,PD7*%
%TO.N,unconnected-(IC1-PD7-Pad123)*%
X160259375Y-93091250D03*
%TO.P,IC1,124,PG9*%
%TO.N,unconnected-(IC1-PG9-Pad124)*%
X159759375Y-93091250D03*
%TO.P,IC1,125,PG10*%
%TO.N,unconnected-(IC1-PG10-Pad125)*%
X159259375Y-93091250D03*
%TO.P,IC1,126,PG11*%
%TO.N,unconnected-(IC1-PG11-Pad126)*%
X158759375Y-93091250D03*
%TO.P,IC1,127,PG12*%
%TO.N,unconnected-(IC1-PG12-Pad127)*%
X158259375Y-93091250D03*
%TO.P,IC1,128,PG13*%
%TO.N,unconnected-(IC1-PG13-Pad128)*%
X157759375Y-93091250D03*
%TO.P,IC1,129,PG14*%
%TO.N,unconnected-(IC1-PG14-Pad129)*%
X157259375Y-93091250D03*
%TO.P,IC1,130,VSS_9*%
%TO.N,GND*%
X156759375Y-93091250D03*
%TO.P,IC1,131,VDD_11*%
%TO.N,+3.3V*%
X156259375Y-93091250D03*
%TO.P,IC1,132,PG15*%
%TO.N,unconnected-(IC1-PG15-Pad132)*%
X155759375Y-93091250D03*
%TO.P,IC1,133,PB3*%
%TO.N,unconnected-(IC1-PB3-Pad133)*%
X155259375Y-93091250D03*
%TO.P,IC1,134,PB4*%
%TO.N,unconnected-(IC1-PB4-Pad134)*%
X154759375Y-93091250D03*
%TO.P,IC1,135,PB5*%
%TO.N,unconnected-(IC1-PB5-Pad135)*%
X154259375Y-93091250D03*
%TO.P,IC1,136,PB6*%
%TO.N,unconnected-(IC1-PB6-Pad136)*%
X153759375Y-93091250D03*
%TO.P,IC1,137,PB7*%
%TO.N,unconnected-(IC1-PB7-Pad137)*%
X153259375Y-93091250D03*
%TO.P,IC1,138,BOOT0*%
%TO.N,/BOOT0*%
X152759375Y-93091250D03*
%TO.P,IC1,139,PB8*%
%TO.N,unconnected-(IC1-PB8-Pad139)*%
X152259375Y-93091250D03*
%TO.P,IC1,140,PB9*%
%TO.N,unconnected-(IC1-PB9-Pad140)*%
X151759375Y-93091250D03*
%TO.P,IC1,141,PE0*%
%TO.N,unconnected-(IC1-PE0-Pad141)*%
X151259375Y-93091250D03*
%TO.P,IC1,142,PE1*%
%TO.N,unconnected-(IC1-PE1-Pad142)*%
X150759375Y-93091250D03*
%TO.P,IC1,143,PDR_ON*%
%TO.N,unconnected-(IC1-PDR_ON-Pad143)*%
X150259375Y-93091250D03*
%TO.P,IC1,144,VDD_12*%
%TO.N,+3.3V*%
X149759375Y-93091250D03*
%TD*%
D11*
%TO.P,C3,1*%
%TO.N,+3.3V*%
X134089375Y-80969250D03*
%TO.P,C3,2*%
%TO.N,GND*%
X134089375Y-79349250D03*
%TD*%
D32*
%TO.P,C16,1*%
%TO.N,+3.3V*%
X140914973Y-112719250D03*
%TO.P,C16,2*%
%TO.N,GND*%
X139459375Y-112719250D03*
%TD*%
D15*
%TO.P,J2,1,Pin_1*%
%TO.N,USART1_RX*%
X179845375Y-98749250D03*
D33*
%TO.P,J2,2,Pin_2*%
%TO.N,USART1_TX*%
X179845375Y-101289250D03*
%TO.P,J2,3,Pin_3*%
%TO.N,+3.3V*%
X179845375Y-103829250D03*
%TO.P,J2,4,Pin_4*%
%TO.N,GND*%
X179845375Y-106369250D03*
%TD*%
D34*
%TO.P,R3,1*%
%TO.N,Net-(Y1-CRYSTAL_1)*%
X140269375Y-105099250D03*
%TO.P,R3,2*%
%TO.N,RCC_OSC_IN*%
X143269375Y-105099250D03*
%TD*%
D35*
%TO.P,R10,1*%
%TO.N,Net-(J3-CC2)*%
X148603375Y-72333250D03*
%TO.P,R10,2*%
%TO.N,GND*%
X148603375Y-73783250D03*
%TD*%
D18*
%TO.P,C23,1*%
%TO.N,GND*%
X154953375Y-77521250D03*
%TO.P,C23,2*%
%TO.N,Net-(IC2-ADJ{slash}BYP)*%
X154953375Y-76905250D03*
%TD*%
D11*
%TO.P,C2,1*%
%TO.N,+3.3V*%
X131259375Y-80969250D03*
%TO.P,C2,2*%
%TO.N,GND*%
X131259375Y-79349250D03*
%TD*%
D15*
%TO.P,J1,1,Pin_1*%
%TO.N,+3.3V*%
X163589375Y-83509250D03*
D33*
%TO.P,J1,2,Pin_2*%
%TO.N,GND*%
X166129375Y-83509250D03*
%TO.P,J1,3,Pin_3*%
%TO.N,SWCLK*%
X168669375Y-83509250D03*
%TO.P,J1,4,Pin_4*%
%TO.N,SWDIO*%
X171209375Y-83509250D03*
%TD*%
D35*
%TO.P,R9,1*%
%TO.N,GND*%
X152413375Y-73058250D03*
%TO.P,R9,2*%
%TO.N,Net-(J3-CC1)*%
X152413375Y-71608250D03*
%TD*%
D11*
%TO.P,C12,1*%
%TO.N,+3.3V*%
X134669375Y-90113250D03*
%TO.P,C12,2*%
%TO.N,GND*%
X134669375Y-91733250D03*
%TD*%
%TO.P,C11,1*%
%TO.N,+3.3V*%
X137173375Y-90017250D03*
%TO.P,C11,2*%
%TO.N,GND*%
X137173375Y-91637250D03*
%TD*%
%TO.P,C5,1*%
%TO.N,+3.3V*%
X139749375Y-80969250D03*
%TO.P,C5,2*%
%TO.N,GND*%
X139749375Y-79349250D03*
%TD*%
D36*
%TO.N,+3.3V*%
X143777375Y-80969250D03*
X163589375Y-74365250D03*
X123457375Y-88589250D03*
%TO.N,GND*%
X125489375Y-85541250D03*
X146317375Y-68269250D03*
X162065375Y-68269250D03*
X148857375Y-77413250D03*
X156477375Y-117037250D03*
%TD*%
D37*
%TO.N,GND*%
X162006375Y-72900250D02*
X161000000Y-72900250D01*
D38*
X162065375Y-72841250D02*
X162006375Y-72900250D01*
D37*
X160900250Y-73000000D02*
X159076125Y-73000000D01*
X157477625Y-73000000D02*
X158978625Y-73000000D01*
X157419375Y-73058250D02*
X157477625Y-73000000D01*
D38*
X161000000Y-72900250D02*
X161000000Y-73765750D01*
D39*
%TO.N,VBUS*%
X156493375Y-66655750D02*
X156493375Y-68069250D01*
X156437625Y-66600000D02*
X156493375Y-66655750D01*
X151493375Y-66600000D02*
X156437625Y-66600000D01*
X151493375Y-68069250D02*
X151493375Y-66600000D01*
D40*
%TO.N,+3.3V*%
X140729375Y-112904848D02*
X140914973Y-112719250D01*
X149597375Y-109579250D02*
X149759375Y-109417250D01*
X141745375Y-80969250D02*
X143777375Y-80969250D01*
X179845375Y-103829250D02*
X171101375Y-103829250D01*
X147841375Y-80969250D02*
X143777375Y-80969250D01*
X141745375Y-87065250D02*
X141745375Y-80969250D01*
X147771375Y-103079250D02*
X149759375Y-103079250D01*
X143777375Y-93161250D02*
X149689375Y-93161250D01*
X149605375Y-97579250D02*
X147771375Y-97579250D01*
X156259375Y-93091250D02*
X156259375Y-98552000D01*
X149759375Y-98552000D02*
X149759375Y-98241250D01*
X149759375Y-103079250D02*
X149759375Y-102078750D01*
X156259375Y-98552000D02*
X160732625Y-98552000D01*
X140928875Y-111340750D02*
X140928875Y-111079250D01*
X147771375Y-109579250D02*
X149597375Y-109579250D01*
X162259375Y-114567250D02*
X162259375Y-111107500D01*
X131731375Y-87065250D02*
X129045375Y-87065250D01*
X140221375Y-90017250D02*
X140221375Y-87065250D01*
X140729375Y-114859250D02*
X140729375Y-112904848D01*
X149759375Y-111079250D02*
X149759375Y-110078750D01*
X164787125Y-110552000D02*
X164787125Y-111107500D01*
X169247375Y-107079250D02*
X164787125Y-107079250D01*
X162259375Y-111107500D02*
X159787125Y-111107500D01*
X141037375Y-111449250D02*
X140928875Y-111340750D01*
X164787125Y-107079250D02*
X164787125Y-110552000D01*
X149759375Y-102078750D02*
X149759375Y-98241250D01*
X164787125Y-101579250D02*
X164787125Y-105052000D01*
D41*
X158377375Y-74325250D02*
X158525375Y-74473250D01*
D40*
X141745375Y-80969250D02*
X139749375Y-80969250D01*
X140221375Y-87065250D02*
X141745375Y-87065250D01*
X169247375Y-95079250D02*
X164787125Y-95079250D01*
X164787125Y-111107500D02*
X159787125Y-111107500D01*
X171101375Y-103829250D02*
X171101375Y-101660407D01*
X143777375Y-80969250D02*
X143777375Y-93161250D01*
X147841375Y-83509250D02*
X147841375Y-80969250D01*
D41*
X160541375Y-74473250D02*
X163481375Y-74473250D01*
X158525375Y-74473250D02*
X160541375Y-74473250D01*
D40*
X161259375Y-98451250D02*
X161360125Y-98552000D01*
X157259375Y-114567250D02*
X157259375Y-111075000D01*
X157259375Y-111075000D02*
X150755625Y-111075000D01*
X164787125Y-95079250D02*
X164787125Y-98552000D01*
X167259375Y-111107500D02*
X164787125Y-111107500D01*
X164787125Y-98552000D02*
X164787125Y-105052000D01*
D41*
X115590875Y-88589250D02*
X115550875Y-88629250D01*
D40*
X141037375Y-112596848D02*
X140914973Y-112719250D01*
X149759375Y-110078750D02*
X149759375Y-108578750D01*
X171020218Y-101579250D02*
X169247375Y-101579250D01*
X149759375Y-111075000D02*
X149759375Y-110078750D01*
X149759375Y-109417250D02*
X149759375Y-108578750D01*
X150755625Y-111075000D02*
X149759375Y-111075000D01*
D41*
X123457375Y-88589250D02*
X115590875Y-88589250D01*
D40*
X139749375Y-80969250D02*
X128029375Y-80969250D01*
X167259375Y-114567250D02*
X167259375Y-111107500D01*
X147771375Y-111079250D02*
X149759375Y-111079250D01*
X156259375Y-98552000D02*
X149759375Y-98552000D01*
D41*
X163481375Y-74473250D02*
X163589375Y-74365250D01*
D40*
X140928875Y-111079250D02*
X147771375Y-111079250D01*
X159787125Y-111107500D02*
X154787125Y-111107500D01*
X149689375Y-93161250D02*
X149759375Y-93091250D01*
X140221375Y-87065250D02*
X131731375Y-87065250D01*
X161360125Y-98552000D02*
X164787125Y-98552000D01*
X140729375Y-115659250D02*
X141037375Y-115967250D01*
X160732625Y-98552000D02*
X164787125Y-98552000D01*
X164787125Y-105052000D02*
X164787125Y-110552000D01*
X137077375Y-90113250D02*
X137173375Y-90017250D01*
X149759375Y-97733250D02*
X149605375Y-97579250D01*
X150759375Y-111078750D02*
X150755625Y-111075000D01*
X171101375Y-101660407D02*
X171020218Y-101579250D01*
X141037375Y-115967250D02*
X141037375Y-117799250D01*
X141037375Y-111449250D02*
X141037375Y-112596848D01*
X149759375Y-108578750D02*
X149759375Y-102078750D01*
X149759375Y-98241250D02*
X149759375Y-96578750D01*
X150759375Y-114567250D02*
X150759375Y-111078750D01*
X137173375Y-90017250D02*
X140221375Y-90017250D01*
X129009375Y-90113250D02*
X137077375Y-90113250D01*
X161259375Y-93091250D02*
X161259375Y-98451250D01*
X149759375Y-93091250D02*
X149759375Y-96578750D01*
X169247375Y-101579250D02*
X164787125Y-101579250D01*
%TO.N,GND*%
X139749375Y-79349250D02*
X139749375Y-77413250D01*
X129029375Y-79349250D02*
X128029375Y-78349250D01*
X156709375Y-115604750D02*
X156477375Y-115836750D01*
D38*
X148603375Y-77159250D02*
X148857375Y-77413250D01*
D40*
X138189375Y-102813250D02*
X138189375Y-104659250D01*
X156759375Y-93091250D02*
X156759375Y-83989250D01*
X166129375Y-83509250D02*
X166129375Y-92053750D01*
D37*
X149343375Y-67289250D02*
X146353375Y-67289250D01*
D40*
X129553375Y-112719250D02*
X139459375Y-112719250D01*
X170701375Y-107579250D02*
X169247375Y-107579250D01*
X161759375Y-115554750D02*
X161709375Y-115604750D01*
X161709375Y-115604750D02*
X156809375Y-115604750D01*
X170701375Y-102305250D02*
X170701375Y-107579250D01*
X161759375Y-94078750D02*
X161759375Y-93091250D01*
D37*
X162065375Y-67289250D02*
X162065375Y-68269250D01*
D40*
X139749375Y-79349250D02*
X129029375Y-79349250D01*
X170475375Y-102079250D02*
X170701375Y-102305250D01*
X129009375Y-91733250D02*
X125489375Y-91733250D01*
X125489375Y-91637250D02*
X125489375Y-85541250D01*
X156809375Y-115604750D02*
X156759375Y-115554750D01*
D37*
X148603375Y-73783250D02*
X146317375Y-73783250D01*
X157427375Y-71825250D02*
X157427375Y-73050250D01*
X157863375Y-68069250D02*
X158643375Y-67289250D01*
D40*
X139749375Y-77413250D02*
X148857375Y-77413250D01*
X179845375Y-106369250D02*
X179845375Y-107385250D01*
D37*
X158643375Y-67289250D02*
X162065375Y-67289250D01*
X158643375Y-67289250D02*
X159913375Y-66019250D01*
D40*
X156477375Y-115836750D02*
X156477375Y-117037250D01*
X150381375Y-115604750D02*
X150381375Y-115513250D01*
X157239375Y-83509250D02*
X157239375Y-77521250D01*
D37*
X148073375Y-62969250D02*
X148073375Y-66019250D01*
D40*
X140421375Y-109109250D02*
X140221375Y-108909250D01*
X161759375Y-114567250D02*
X161759375Y-115554750D01*
X125489375Y-91733250D02*
X125489375Y-91637250D01*
X170284875Y-95529250D02*
X170284875Y-94268750D01*
X161759375Y-92103750D02*
X161759375Y-93091250D01*
D37*
X148603375Y-73783250D02*
X148603375Y-77159250D01*
X162065375Y-68269250D02*
X162065375Y-72841250D01*
D40*
X157239375Y-77521250D02*
X154953375Y-77521250D01*
X125489375Y-78429250D02*
X125489375Y-85541250D01*
X140421375Y-111449250D02*
X139459375Y-111449250D01*
X125569375Y-78349250D02*
X125489375Y-78429250D01*
D37*
X148603375Y-73783250D02*
X151688375Y-73783250D01*
D40*
X129045375Y-85445250D02*
X125585375Y-85445250D01*
D37*
X148073375Y-66019250D02*
X149343375Y-67289250D01*
D40*
X140421375Y-111449250D02*
X140221375Y-111449250D01*
X125489375Y-91733250D02*
X125489375Y-93629250D01*
X139459375Y-117799250D02*
X139949375Y-118289250D01*
X140221375Y-85445250D02*
X129045375Y-85445250D01*
X129553375Y-108401250D02*
X129553375Y-112719250D01*
X139949375Y-118289250D02*
X156477375Y-118289250D01*
X132279375Y-108059250D02*
X132093375Y-107873250D01*
X139459375Y-117799250D02*
X139459375Y-112719250D01*
D38*
X146317375Y-67253250D02*
X146317375Y-68269250D01*
D37*
X146317375Y-73783250D02*
X146317375Y-68269250D01*
X150123375Y-68069250D02*
X149343375Y-67289250D01*
D40*
X144639375Y-110079250D02*
X144539375Y-110179250D01*
D38*
X146353375Y-67289250D02*
X146317375Y-67253250D01*
D40*
X140221375Y-111449250D02*
X140221375Y-110179250D01*
X179651375Y-107579250D02*
X170701375Y-107579250D01*
X156477375Y-118289250D02*
X156477375Y-117037250D01*
D38*
X157427375Y-73050250D02*
X157419375Y-73058250D01*
D40*
X147771375Y-110079250D02*
X144639375Y-110079250D01*
X132093375Y-107873250D02*
X132093375Y-104659250D01*
X170193375Y-94177250D02*
X161857875Y-94177250D01*
X132279375Y-108059250D02*
X129895375Y-108059250D01*
X139459375Y-111449250D02*
X139459375Y-112719250D01*
X150381375Y-115604750D02*
X156709375Y-115604750D01*
X170701375Y-107579250D02*
X170701375Y-117037250D01*
X150259375Y-115554750D02*
X150309375Y-115604750D01*
D37*
X159913375Y-66019250D02*
X159913375Y-62969250D01*
D40*
X161809375Y-92053750D02*
X161759375Y-92103750D01*
X125489375Y-78349250D02*
X125489375Y-78429250D01*
X138423375Y-102579250D02*
X138189375Y-102813250D01*
X148965375Y-77521250D02*
X148857375Y-77413250D01*
X125585375Y-85445250D02*
X125489375Y-85541250D01*
X137173375Y-91637250D02*
X129105375Y-91637250D01*
D37*
X151688375Y-73783250D02*
X152413375Y-73058250D01*
D40*
X154953375Y-77521250D02*
X148965375Y-77521250D01*
X169247375Y-102079250D02*
X170475375Y-102079250D01*
X170284875Y-94268750D02*
X170193375Y-94177250D01*
X156709375Y-115604750D02*
X156759375Y-115554750D01*
X156759375Y-115554750D02*
X156759375Y-114567250D01*
X170701375Y-117037250D02*
X156477375Y-117037250D01*
X140221375Y-110179250D02*
X140221375Y-108909250D01*
X166129375Y-92053750D02*
X161809375Y-92053750D01*
X129895375Y-108059250D02*
X129553375Y-108401250D01*
X150309375Y-115604750D02*
X150381375Y-115604750D01*
X156759375Y-83989250D02*
X157239375Y-83509250D01*
X169247375Y-95579250D02*
X170234875Y-95579250D01*
X170234875Y-95579250D02*
X170284875Y-95529250D01*
X161857875Y-94177250D02*
X161759375Y-94078750D01*
X150259375Y-114567250D02*
X150259375Y-115554750D01*
X129105375Y-91637250D02*
X129009375Y-91733250D01*
D37*
X157493375Y-68069250D02*
X157863375Y-68069250D01*
D38*
X150493375Y-68069250D02*
X150123375Y-68069250D01*
D40*
X147771375Y-102579250D02*
X138423375Y-102579250D01*
X140421375Y-117799250D02*
X139459375Y-117799250D01*
D37*
X157419375Y-73058250D02*
X152413375Y-73058250D01*
D40*
X125489375Y-93629250D02*
X115550875Y-93629250D01*
X132093375Y-104659250D02*
X138189375Y-104659250D01*
X179845375Y-107385250D02*
X179651375Y-107579250D01*
X128029375Y-78349250D02*
X125569375Y-78349250D01*
X144539375Y-110179250D02*
X140221375Y-110179250D01*
%TO.N,/NRST*%
X144793375Y-107079250D02*
X144793375Y-108305250D01*
X144793375Y-108305250D02*
X144539375Y-108559250D01*
X147771375Y-107079250D02*
X144793375Y-107079250D01*
%TO.N,RCC_OSC_OUT*%
X139713375Y-106579250D02*
X147771375Y-106579250D01*
X132279375Y-109759250D02*
X132279375Y-110619250D01*
X139341375Y-106951250D02*
X139713375Y-106579250D01*
X139205375Y-109315250D02*
X139341375Y-109179250D01*
X139341375Y-109179250D02*
X139341375Y-108909250D01*
X139341375Y-108909250D02*
X139341375Y-106951250D01*
X132279375Y-110619250D02*
X132601375Y-110941250D01*
X139205375Y-110941250D02*
X139205375Y-109315250D01*
X132601375Y-110941250D02*
X139205375Y-110941250D01*
%TO.N,Net-(Y1-CRYSTAL_1)*%
X138023375Y-108059250D02*
X138189375Y-107893250D01*
X139829375Y-105539250D02*
X138189375Y-105539250D01*
X138189375Y-107893250D02*
X138189375Y-105539250D01*
X134379375Y-108059250D02*
X138023375Y-108059250D01*
X140269375Y-105099250D02*
X139829375Y-105539250D01*
D41*
%TO.N,Net-(IC2-ADJ{slash}BYP)*%
X154953375Y-74365250D02*
X154993375Y-74325250D01*
X154993375Y-74325250D02*
X156477375Y-74325250D01*
X154953375Y-76905250D02*
X154953375Y-74365250D01*
D40*
%TO.N,I2C2_SDA*%
X134456875Y-99579250D02*
X132356875Y-97479250D01*
X147771375Y-99579250D02*
X134456875Y-99579250D01*
%TO.N,I2C2_SCL*%
X147771375Y-100079250D02*
X132416875Y-100079250D01*
X132416875Y-100079250D02*
X132356875Y-100019250D01*
%TO.N,RCC_OSC_IN*%
X143269375Y-106079250D02*
X143269375Y-105099250D01*
X147771375Y-106079250D02*
X143269375Y-106079250D01*
%TO.N,USART1_TX*%
X179735375Y-101179250D02*
X170284875Y-101179250D01*
X179845375Y-101289250D02*
X179735375Y-101179250D01*
X170234875Y-98579250D02*
X169247375Y-98579250D01*
X170284875Y-101179250D02*
X170284875Y-98629250D01*
X170284875Y-98629250D02*
X170234875Y-98579250D01*
%TO.N,USART1_RX*%
X179845375Y-98749250D02*
X179175375Y-98079250D01*
X179175375Y-98079250D02*
X169247375Y-98079250D01*
%TO.N,SWDIO*%
X171071375Y-96579250D02*
X171209375Y-96441250D01*
X169247375Y-96579250D02*
X171071375Y-96579250D01*
X171209375Y-96441250D02*
X171209375Y-83509250D01*
%TO.N,SWCLK*%
X167259375Y-83509250D02*
X168669375Y-83509250D01*
X167259375Y-93091250D02*
X167259375Y-83509250D01*
%TO.N,/BOOT0*%
X152759375Y-89390250D02*
X152413375Y-89044250D01*
X152759375Y-93091250D02*
X152759375Y-89390250D01*
D37*
%TO.N,VBUS*%
X158377375Y-69793250D02*
X156493375Y-69793250D01*
X158377375Y-71825250D02*
X158377375Y-69793250D01*
X156493375Y-71809250D02*
X156477375Y-71825250D01*
X156493375Y-69793250D02*
X156493375Y-71809250D01*
X156493375Y-68069250D02*
X156493375Y-69793250D01*
D40*
%TO.N,Net-(J3-CC1)*%
X155243375Y-68069250D02*
X155243375Y-71608250D01*
X155243375Y-71608250D02*
X152413375Y-71608250D01*
%TO.N,Net-(J3-CC2)*%
X148857375Y-72079250D02*
X148603375Y-72333250D01*
X152243375Y-68069250D02*
X152243375Y-69793250D01*
X148857375Y-69793250D02*
X148857375Y-72079250D01*
X152243375Y-69793250D02*
X148857375Y-69793250D01*
%TO.N,/SW_BOOT0*%
X152413375Y-83636250D02*
X152540375Y-83509250D01*
X152413375Y-88134250D02*
X152413375Y-83636250D01*
%TD*%
M02*
