M48
; DRILL file {KiCad 7.0.7} date Tue Oct 17 17:05:37 2023
; FORMAT={-:-/ absolute / metric / decimal}
; #@! TF.CreationDate,2023-10-17T17:05:37-05:00
; #@! TF.GenerationSoftware,Kicad,Pcbnew,7.0.7
; #@! TF.FileFunction,Plated,1,2,PTH
FMAT,2
METRIC
; #@! TA.AperFunction,Plated,PTH,ViaDrill
T1C0.400
; #@! TA.AperFunction,Plated,PTH,ComponentDrill
T2C0.650
; #@! TA.AperFunction,Plated,PTH,ComponentDrill
T3C1.020
; #@! TA.AperFunction,Plated,PTH,ComponentDrill
T4C1.400
; #@! TA.AperFunction,Plated,PTH,ComponentDrill
T5C2.286
%
G90
G05
T1
X123.457Y-88.589
X125.489Y-85.541
X143.777Y-80.969
X146.317Y-68.269
X148.857Y-77.413
X156.477Y-117.037
X162.065Y-68.269
X163.589Y-74.365
T3
X132.357Y-97.479
X132.357Y-100.019
X163.589Y-83.509
X166.129Y-83.509
X168.669Y-83.509
X171.209Y-83.509
X179.845Y-98.749
X179.845Y-101.289
X179.845Y-103.829
X179.845Y-106.369
T4
X115.551Y-88.629
X115.551Y-93.629
T5
X147.841Y-83.509
X152.54Y-83.509
X157.239Y-83.509
T2
G00X148.073Y-63.419
M15
G01X148.073Y-62.519
M16
G05
G00X149.343Y-67.589
M15
G01X149.343Y-66.989
M16
G05
G00X158.643Y-67.589
M15
G01X158.643Y-66.989
M16
G05
G00X159.913Y-63.419
M15
G01X159.913Y-62.519
M16
G05
T0
M30
